<?xml version="1.0" encoding="UTF-8" standalone="no"?>
<svg
   xmlns:dc="http://purl.org/dc/elements/1.1/"
   xmlns:cc="http://creativecommons.org/ns#"
   xmlns:rdf="http://www.w3.org/1999/02/22-rdf-syntax-ns#"
   xmlns:svg="http://www.w3.org/2000/svg"
   xmlns="http://www.w3.org/2000/svg"
   xmlns:sodipodi="http://sodipodi.sourceforge.net/DTD/sodipodi-0.dtd"
   xmlns:inkscape="http://www.inkscape.org/namespaces/inkscape"
   sodipodi:docname="thesis-bookmark.svg"
   inkscape:version="1.0 (4035a4f, 2020-05-01)"
   id="svg8"
   version="1.1"
   viewBox="0 0 60 230"
   height="230mm"
   width="60mm">
  <defs
     id="defs2">
    <rect
       x="5.2916667"
       y="201.08333"
       width="52.916667"
       height="26.458333"
       id="rect1096" />
    <rect
       x="5.2916667"
       y="68.791667"
       width="47.625"
       height="58.208333"
       id="rect1086" />
    <rect
       x="3.0238095"
       y="3.4017857"
       width="52.916667"
       height="61.232143"
       id="rect840" />
    <rect
       id="rect840-9"
       height="61.232143"
       width="52.916668"
       y="3.4017856"
       x="3.0238094" />
    <rect
       id="rect1111"
       height="61.232143"
       width="52.916668"
       y="3.4017856"
       x="3.0238094" />
    <rect
       id="rect840-6"
       height="61.232143"
       width="52.916668"
       y="3.4017856"
       x="3.0238094" />
    <rect
       id="rect1111-9"
       height="61.232143"
       width="52.916668"
       y="3.4017856"
       x="3.0238094" />
  </defs>
  <sodipodi:namedview
     inkscape:window-maximized="0"
     inkscape:window-y="22"
     inkscape:window-x="0"
     inkscape:window-height="815"
     inkscape:window-width="1440"
     showgrid="true"
     inkscape:document-rotation="0"
     inkscape:current-layer="g1473"
     inkscape:document-units="mm"
     inkscape:cy="435.04658"
     inkscape:cx="-262.26901"
     inkscape:zoom="0.68505539"
     inkscape:pageshadow="2"
     inkscape:pageopacity="0.0"
     borderopacity="1.0"
     bordercolor="#666666"
     pagecolor="#ffffff"
     id="base">
    <inkscape:grid
       type="xygrid"
       id="grid846" />
  </sodipodi:namedview>
  <metadata
     id="metadata5">
    <rdf:RDF>
      <cc:Work
         rdf:about="">
        <dc:format>image/svg+xml</dc:format>
        <dc:type
           rdf:resource="http://purl.org/dc/dcmitype/StillImage" />
        <dc:title />
      </cc:Work>
    </rdf:RDF>
  </metadata>
  <g
     id="layer1"
     inkscape:groupmode="layer"
     inkscape:label="Ebene 1">
    <g
       id="g1554">
      <rect
         y="0"
         x="0"
         height="230"
         width="60"
         id="rect1249"
         style="fill:#30444d;fill-opacity:1;stroke-width:0.503663" />
      <g
         id="g1473">
        <text
           xml:space="preserve"
           id="text838"
           style="font-style:normal;font-weight:normal;font-size:5.54837000000000025px;line-height:1.25;font-family:sans-serif;white-space:pre;shape-inside:url(#rect840);fill:#d7a23f;fill-opacity:1;stroke:none;"
           x="51.304337"
           y="0"
           transform="matrix(1.0412018,0,0,0.99397699,-0.86274991,9.2576189)"><tspan
             x="3.9349961"
             y="8.4642898"><tspan
               style="font-style:normal;font-variant:normal;font-weight:bold;font-stretch:normal;font-family:'Fira Sans';-inkscape-font-specification:'Fira Sans Bold';text-align:center;text-anchor:middle;fill:#d7a23f;fill-opacity:1">Josephson junctions </tspan></tspan><tspan
             x="5.164957"
             y="15.445047"><tspan
               style="font-style:normal;font-variant:normal;font-weight:bold;font-stretch:normal;font-family:'Fira Sans';-inkscape-font-specification:'Fira Sans Bold';text-align:center;text-anchor:middle;fill:#d7a23f;fill-opacity:1">in superconducting </tspan></tspan><tspan
             x="8.318425"
             y="22.425803"><tspan
               style="font-style:normal;font-variant:normal;font-weight:bold;font-stretch:normal;font-family:'Fira Sans';-inkscape-font-specification:'Fira Sans Bold';text-align:center;text-anchor:middle;fill:#d7a23f;fill-opacity:1">coplanar </tspan><tspan
               style="font-style:normal;font-variant:normal;font-weight:bold;font-stretch:normal;font-family:'Fira Sans';-inkscape-font-specification:'Fira Sans Bold';text-align:center;text-anchor:middle;fill:#d7a23f;fill-opacity:1">DC bias
</tspan></tspan><tspan
             x="19.740265"
             y="29.40656"><tspan
               style="font-style:normal;font-variant:normal;font-weight:bold;font-stretch:normal;font-family:'Fira Sans';-inkscape-font-specification:'Fira Sans Bold';text-align:center;text-anchor:middle;fill:#d7a23f;fill-opacity:1">cavities</tspan><tspan
               style="font-style:normal;font-variant:normal;font-weight:normal;font-stretch:normal;font-size:5.54837px;font-family:'Fira Sans';-inkscape-font-specification:'Fira Sans';text-align:center;text-anchor:middle;fill:#d7a23f;fill-opacity:1">
</tspan></tspan><tspan
             x="29.482422"
             y="36.387317"><tspan
               style="font-style:normal;font-variant:normal;font-weight:normal;font-stretch:normal;font-size:5.54837px;font-family:'Fira Sans';-inkscape-font-specification:'Fira Sans';text-align:center;text-anchor:middle;fill:#d7a23f;fill-opacity:1">
</tspan></tspan><tspan
             x="3.2468682"
             y="43.368076"><tspan
               style="font-style:italic;font-variant:normal;font-weight:normal;font-stretch:normal;font-size:5.54837px;font-family:'Fira Sans';-inkscape-font-specification:'Fira Sans Italic';text-align:center;text-anchor:middle;fill:#d7a23f;fill-opacity:1">Fundamental studies </tspan></tspan><tspan
             x="8.43221"
             y="50.348834"><tspan
               style="font-style:italic;font-variant:normal;font-weight:normal;font-stretch:normal;font-size:5.54837px;font-family:'Fira Sans';-inkscape-font-specification:'Fira Sans Italic';text-align:center;text-anchor:middle;fill:#d7a23f;fill-opacity:1">and applications</tspan></tspan></text>
        <text
           transform="matrix(1.1286164,0,0,1.0774268,-3.5574385,78.925063)"
           y="0"
           x="49.222137"
           style="font-style:normal;font-weight:normal;font-size:5.11862999999999957px;line-height:1.25;font-family:sans-serif;white-space:pre;shape-inside:url(#rect840-9);fill:#d7a23f;fill-opacity:1;stroke:none;"
           id="text838-8"
           xml:space="preserve"><tspan
             x="7.0084373"
             y="8.072225"><tspan
               style="font-style:normal;font-variant:normal;font-weight:normal;font-stretch:normal;font-size:5.11863px;font-family:'Fira Sans';-inkscape-font-specification:'Fira Sans';text-align:center;text-anchor:middle;fill:#d7a23f;fill-opacity:1">Public PhD defence
</tspan></tspan><tspan
             x="29.482422"
             y="14.512299"><tspan
               style="font-style:normal;font-variant:normal;font-weight:normal;font-stretch:normal;font-size:5.11863px;font-family:'Fira Sans';-inkscape-font-specification:'Fira Sans';text-align:center;text-anchor:middle;fill:#d7a23f;fill-opacity:1">
</tspan></tspan><tspan
             x="22.409315"
             y="20.952373"><tspan
               style="font-style:normal;font-variant:normal;font-weight:normal;font-stretch:normal;font-size:5.11863px;font-family:'Fira Sans';-inkscape-font-specification:'Fira Sans';text-align:center;text-anchor:middle;fill:#d7a23f;fill-opacity:1">Friday
</tspan></tspan><tspan
             x="12.19205"
             y="27.392446"><tspan
               style="font-style:normal;font-variant:normal;font-weight:normal;font-stretch:normal;font-size:5.11863px;font-family:'Fira Sans';-inkscape-font-specification:'Fira Sans';text-align:center;text-anchor:middle;fill:#d7a23f;fill-opacity:1">28 August 2020
</tspan></tspan><tspan
             x="23.788946"
             y="33.832521"><tspan
               style="font-style:normal;font-variant:normal;font-weight:normal;font-stretch:normal;font-size:5.11863px;font-family:'Fira Sans';-inkscape-font-specification:'Fira Sans';text-align:center;text-anchor:middle;fill:#d7a23f;fill-opacity:1">12:30
</tspan></tspan><tspan
             x="15.611135"
             y="40.272596"><tspan
               style="font-style:normal;font-variant:normal;font-weight:normal;font-stretch:normal;font-size:5.11863px;font-family:'Fira Sans';-inkscape-font-specification:'Fira Sans';text-align:center;text-anchor:middle;fill:#d7a23f;fill-opacity:1">Senaatszaal
</tspan></tspan><tspan
             x="13.821614"
             y="46.712671"><tspan
               style="font-style:normal;font-variant:normal;font-weight:normal;font-stretch:normal;font-size:5.11863px;font-family:'Fira Sans';-inkscape-font-specification:'Fira Sans';text-align:center;text-anchor:middle;fill:#d7a23f;fill-opacity:1">Aula, TU Delft</tspan></tspan></text>
        <text
           transform="matrix(1.0620265,0,0,1.0267456,-1.2831824,199.13323)"
           y="0"
           x="51.299873"
           style="font-style:normal;font-weight:normal;font-size:5.54837000000000025px;line-height:1.25;font-family:sans-serif;text-align:center;white-space:pre;shape-inside:url(#rect840-6);fill:#d7a23f;fill-opacity:1;stroke:none;"
           id="text838-0"
           xml:space="preserve"><tspan
             x="10.472115"
             y="9.0819209"><tspan
               style="font-style:normal;font-variant:normal;font-weight:normal;font-stretch:normal;font-size:6.28156px;font-family:'Fira Sans';-inkscape-font-specification:'Fira Sans';fill:#d7a23f;fill-opacity:1">Felix Schmidt</tspan><tspan
               style="font-style:normal;font-variant:normal;font-weight:normal;font-stretch:normal;font-size:5.58361px;font-family:'Fira Sans';-inkscape-font-specification:'Fira Sans';fill:#d7a23f;fill-opacity:1">
</tspan></tspan><tspan
             x="3.8490575"
             y="16.316239"><tspan
               style="font-style:normal;font-variant:normal;font-weight:normal;font-stretch:normal;font-size:4.18771px;font-family:'Fira Sans';-inkscape-font-specification:'Fira Sans';fill:#d7a23f;fill-opacity:1">felix.e.schmidt@gmail.com</tspan></tspan></text>
        <g
           id="g1180"
           transform="matrix(0.01194228,0,0,0.01194228,3,158)">
          <path
             id="path1182"
             style="fill:#d7a23f;fill-opacity:1;fill-rule:nonzero;stroke:none"
             d="m 600,513.953 375,319.5 v 9 L 600,663.953 H 300 v 187.5 H 0 v -337.5 z" />
          <path
             id="path1184"
             style="fill:#d7a23f;fill-opacity:1;fill-rule:nonzero;stroke:none"
             d="m 300,851.453 v 187.5 h 300 l 375,-178.5 v 9 l -375,319.5 H 0 v -337.5 z" />
          <path
             id="path1186"
             style="fill:#d7a23f;fill-opacity:1;fill-rule:nonzero;stroke:none"
             d="m 3921.75,655.5 -375,178.5 v -9 l 375,-319.5 h 600 V 843 h -300 V 655.5 Z" />
          <path
             id="path1188"
             style="fill:#d7a23f;fill-opacity:1;fill-rule:nonzero;stroke:none"
             d="m 3546.75,852 375,178.5 h 300 V 843 h 300 v 337.5 h -600 l -375,-319.5 z" />
          <path
             id="path1190"
             style="fill:#d7a23f;fill-opacity:1;fill-rule:nonzero;stroke:none"
             d="m 975,833.453 h 150 v 9 H 975 Z" />
          <path
             id="path1192"
             style="fill:#d7a23f;fill-opacity:1;fill-rule:nonzero;stroke:none"
             d="m 975,860.453 h 150 v 9 H 975 Z" />
          <path
             id="path1194"
             style="fill:#d7a23f;fill-opacity:1;fill-rule:nonzero;stroke:none"
             d="m 1245.75,738.953 v 103.5 h 9 v -108 l -4.5,-4.5 H 1125 l -4.5,4.5 v 108 h 9 v -103.5 z" />
          <path
             id="path1196"
             style="fill:#d7a23f;fill-opacity:1;fill-rule:nonzero;stroke:none"
             d="m 1125,972.953 h 125.25 l 4.5,-4.5 v -108 h -9 v 103.5 H 1129.5 v -103.5 h -9 v 108 z" />
          <path
             id="path1198"
             style="fill:#d7a23f;fill-opacity:1;fill-rule:nonzero;stroke:none"
             d="m 1529.016,833.449 1.644,-0.019 1.641,-0.035 1.64,-0.043 1.641,-0.059 1.645,-0.074 1.636,-0.082 1.641,-0.102 1.637,-0.109 1.64,-0.121 1.637,-0.137 1.633,-0.152 1.633,-0.161 1.632,-0.175 1.633,-0.192 1.629,-0.199 1.629,-0.215 1.629,-0.226 1.621,-0.243 1.625,-0.25 1.621,-0.265 1.617,-0.281 1.618,-0.293 1.613,-0.301 1.609,-0.317 1.61,-0.332 1.605,-0.343 1.605,-0.356 1.598,-0.367 1.598,-0.383 1.594,-0.39 1.593,-0.407 1.586,-0.418 1.586,-0.433 1.582,-0.442 1.578,-0.457 1.575,-0.468 1.566,-0.485 1.566,-0.492 1.563,-0.508 1.558,-0.515 1.555,-0.532 1.551,-0.543 1.543,-0.558 1.543,-0.567 1.535,-0.578 1.531,-0.594 1.528,-0.605 1.523,-0.613 1.516,-0.629 1.511,-0.641 1.508,-0.652 1.504,-0.664 1.496,-0.676 1.488,-0.691 1.489,-0.7 1.48,-0.711 1.473,-0.722 1.469,-0.735 1.461,-0.75 1.457,-0.757 1.453,-0.77 1.441,-0.781 1.438,-0.793 1.433,-0.805 1.426,-0.812 1.418,-0.828 1.414,-0.836 1.406,-0.852 1.399,-0.859 1.39,-0.871 1.387,-0.883 1.375,-0.895 1.371,-0.902 1.363,-0.918 1.36,-0.922 1.347,-0.937 1.34,-0.95 1.336,-0.957 1.324,-0.968 1.321,-0.977 1.308,-0.992 1.305,-1 1.297,-1.008 1.285,-1.02 1.277,-1.031 1.27,-1.043 1.266,-1.051 1.254,-1.058 1.242,-1.07 1.238,-1.083 1.227,-1.089 1.222,-1.098 1.211,-1.109 1.199,-1.121 1.196,-1.129 1.183,-1.137 1.176,-1.149 1.164,-1.156 1.156,-1.164 1.149,-1.176 1.137,-1.183 1.128,-1.196 1.118,-1.199 1.113,-1.211 1.098,-1.218 1.089,-1.231 1.082,-1.234 1.071,-1.246 1.058,-1.254 1.051,-1.262 1.039,-1.27 1.031,-1.281 1.024,-1.285 1.008,-1.297 1,-1.301 0.988,-1.312 0.98,-1.316 0.969,-1.329 0.957,-1.332 0.949,-1.343 0.934,-1.348 0.926,-1.356 0.914,-1.363 0.906,-1.371 0.895,-1.379 0.882,-1.387 0.872,-1.39 0.859,-1.399 0.848,-1.406 0.839,-1.414 0.825,-1.418 0.816,-1.426 0.805,-1.429 0.793,-1.438 0.781,-1.445 0.769,-1.449 0.758,-1.457 0.746,-1.465 0.735,-1.469 0.726,-1.473 0.711,-1.48 0.699,-1.484 0.688,-1.493 0.676,-1.496 0.664,-1.504 0.652,-1.504 0.641,-1.515 0.629,-1.516 0.617,-1.523 0.605,-1.528 0.59,-1.531 0.582,-1.535 0.567,-1.539 0.554,-1.547 0.543,-1.551 0.532,-1.554 0.519,-1.559 0.508,-1.559 0.492,-1.566 0.481,-1.57 0.468,-1.575 0.457,-1.578 0.446,-1.582 0.429,-1.582 0.422,-1.59 0.403,-1.589 0.394,-1.594 0.383,-1.598 0.367,-1.601 0.356,-1.606 0.343,-1.605 0.328,-1.606 0.317,-1.613 0.305,-1.613 0.292,-1.618 0.278,-1.617 0.265,-1.621 0.254,-1.621 0.243,-1.625 0.226,-1.625 0.215,-1.629 0.199,-1.633 0.188,-1.629 0.175,-1.632 0.165,-1.633 0.148,-1.637 0.137,-1.637 0.125,-1.636 0.109,-1.641 0.098,-1.637 0.086,-1.64 0.07,-1.641 0.059,-1.641 0.046,-1.644 0.032,-1.641 0.019,-1.64 0.01,-1.645 h 9 l -0.01,1.715 -0.019,1.715 -0.036,1.711 -0.046,1.715 -0.063,1.711 -0.074,1.71 -0.086,1.715 -0.102,1.707 -0.117,1.711 -0.129,1.707 -0.14,1.711 -0.157,1.703 -0.171,1.707 -0.184,1.704 -0.195,1.703 -0.211,1.699 -0.223,1.699 -0.238,1.699 -0.25,1.696 -0.266,1.691 -0.277,1.691 -0.289,1.688 -0.305,1.687 -0.316,1.684 -0.332,1.68 -0.344,1.679 -0.359,1.676 -0.372,1.676 -0.382,1.668 -0.399,1.668 -0.41,1.664 -0.422,1.66 -0.437,1.656 -0.45,1.653 -0.464,1.648 -0.477,1.649 -0.488,1.64 -0.504,1.641 -0.516,1.633 -0.527,1.629 -0.539,1.628 -0.555,1.622 -0.566,1.617 -0.582,1.613 -0.59,1.606 -0.606,1.605 -0.617,1.598 -0.633,1.593 -0.644,1.586 -0.656,1.586 -0.668,1.578 -0.68,1.571 -0.692,1.566 -0.707,1.563 -0.718,1.554 -0.731,1.551 -0.742,1.547 -0.754,1.535 -0.765,1.535 -0.782,1.524 -0.789,1.519 -0.804,1.516 -0.817,1.508 -0.828,1.5 -0.836,1.492 -0.851,1.488 -0.864,1.481 -0.875,1.476 -0.887,1.465 -0.898,1.461 -0.906,1.453 -0.922,1.445 -0.934,1.438 -0.941,1.43 -0.957,1.421 -0.965,1.415 -0.977,1.41 -0.988,1.398 -1,1.391 -1.012,1.386 -1.019,1.375 -1.035,1.368 -1.043,1.359 -1.051,1.352 -1.066,1.343 -1.075,1.332 -1.085,1.328 -1.098,1.317 -1.106,1.308 -1.117,1.297 -1.129,1.293 -1.136,1.282 -1.149,1.273 -1.156,1.262 -1.168,1.254 -1.176,1.246 -1.187,1.234 -1.2,1.227 -1.207,1.215 -1.214,1.207 -1.227,1.199 -1.234,1.187 -1.246,1.176 -1.254,1.168 -1.266,1.16 -1.27,1.145 -1.281,1.14 -1.293,1.125 -1.301,1.117 -1.304,1.106 -1.321,1.098 -1.324,1.086 -1.336,1.074 -1.34,1.066 -1.351,1.055 -1.359,1.043 -1.368,1.031 -1.379,1.02 -1.382,1.011 -1.391,1 -1.402,0.989 -1.407,0.976 -1.414,0.969 -1.422,0.953 -1.433,0.945 -1.438,0.93 -1.445,0.922 -1.453,0.91 -1.457,0.895 -1.469,0.886 -1.473,0.875 -1.48,0.864 -1.488,0.851 -1.492,0.84 -1.5,0.824 -1.508,0.817 -1.516,0.804 -1.519,0.789 -1.528,0.782 -1.531,0.765 -1.539,0.754 -1.543,0.742 -1.551,0.731 -1.555,0.719 -1.562,0.707 -1.566,0.695 -1.575,0.68 -1.578,0.668 -1.582,0.656 -1.59,0.64 -1.593,0.633 -1.598,0.617 -1.602,0.606 -1.609,0.594 -1.609,0.578 -1.618,0.566 -1.621,0.555 -1.629,0.539 -1.628,0.531 -1.637,0.516 -1.637,0.5 -1.641,0.488 -1.648,0.477 -1.648,0.465 -1.653,0.449 -1.656,0.437 -1.664,0.422 -1.66,0.414 -1.668,0.395 -1.672,0.386 -1.672,0.368 -1.676,0.359 -1.679,0.344 -1.68,0.332 -1.684,0.316 -1.687,0.305 -1.688,0.293 -1.691,0.277 -1.695,0.262 -1.692,0.25 -1.699,0.238 -1.699,0.223 -1.699,0.211 -1.704,0.199 -1.703,0.18 -1.707,0.172 -1.707,0.156 -1.707,0.14 -1.707,0.129 -1.711,0.118 -1.711,0.101 -1.711,0.09 -1.711,0.074 -1.714,0.059 -1.711,0.051 -1.715,0.031 -1.711,0.019 -1.715,0.008 v -9 z" />
          <path
             id="path1200"
             style="fill:#d7a23f;fill-opacity:1;fill-rule:nonzero;stroke:none"
             d="m 1529.23,860.445 1.856,-0.019 1.859,-0.039 1.856,-0.051 1.855,-0.066 1.852,-0.082 1.855,-0.094 1.852,-0.11 1.855,-0.125 1.848,-0.14 1.852,-0.157 1.847,-0.167 1.848,-0.184 1.847,-0.199 1.844,-0.211 1.84,-0.231 1.844,-0.242 1.836,-0.258 1.836,-0.269 1.836,-0.285 1.832,-0.301 1.828,-0.317 1.828,-0.328 1.824,-0.343 1.82,-0.36 1.821,-0.371 1.812,-0.391 1.817,-0.402 1.808,-0.414 1.805,-0.43 1.801,-0.445 1.801,-0.461 1.793,-0.473 1.792,-0.488 1.786,-0.5 1.785,-0.515 1.777,-0.532 1.777,-0.543 1.77,-0.558 1.766,-0.574 1.761,-0.586 1.758,-0.598 1.75,-0.617 1.746,-0.625 1.742,-0.645 1.739,-0.656 1.73,-0.668 1.727,-0.684 1.722,-0.695 1.715,-0.711 1.707,-0.723 1.703,-0.738 1.7,-0.75 1.691,-0.765 1.688,-0.778 1.675,-0.793 1.676,-0.804 1.664,-0.817 1.66,-0.832 1.657,-0.844 1.644,-0.855 1.641,-0.871 1.633,-0.883 1.625,-0.898 1.621,-0.907 1.609,-0.922 1.605,-0.937 1.594,-0.945 1.59,-0.961 1.582,-0.973 1.574,-0.984 1.567,-0.996 1.554,-1.012 1.551,-1.02 1.543,-1.035 1.531,-1.047 1.528,-1.058 1.515,-1.071 1.508,-1.086 1.5,-1.093 1.488,-1.106 1.481,-1.117 1.473,-1.133 1.464,-1.14 1.457,-1.153 1.446,-1.164 1.433,-1.176 1.43,-1.191 1.414,-1.195 1.41,-1.211 1.399,-1.223 1.386,-1.23 1.379,-1.246 1.368,-1.254 1.359,-1.266 1.351,-1.273 1.336,-1.286 1.329,-1.296 1.316,-1.309 1.309,-1.32 1.296,-1.328 1.289,-1.336 1.274,-1.348 1.266,-1.359 1.253,-1.372 1.243,-1.378 1.234,-1.387 1.219,-1.399 1.211,-1.406 1.199,-1.418 1.187,-1.426 1.176,-1.437 1.168,-1.445 1.152,-1.457 1.141,-1.461 1.129,-1.473 1.121,-1.484 1.106,-1.489 1.093,-1.5 1.082,-1.507 1.071,-1.516 1.062,-1.527 1.047,-1.532 1.031,-1.543 1.024,-1.547 1.008,-1.558 1,-1.567 0.984,-1.574 0.973,-1.582 0.961,-1.586 0.945,-1.597 0.933,-1.606 0.922,-1.609 0.91,-1.621 0.899,-1.625 0.879,-1.633 0.871,-1.641 0.859,-1.644 0.844,-1.653 0.832,-1.66 0.816,-1.668 0.805,-1.672 0.789,-1.679 0.781,-1.688 0.762,-1.691 0.754,-1.696 0.734,-1.707 0.727,-1.707 0.711,-1.714 0.695,-1.723 0.684,-1.727 0.668,-1.73 0.656,-1.735 0.641,-1.742 0.629,-1.75 0.613,-1.75 0.601,-1.758 0.586,-1.761 0.575,-1.766 0.558,-1.769 0.543,-1.774 0.531,-1.781 0.516,-1.781 0.5,-1.789 0.488,-1.789 0.473,-1.797 0.461,-1.797 0.441,-1.805 0.434,-1.805 0.414,-1.808 0.402,-1.813 0.387,-1.816 0.375,-1.82 0.359,-1.821 0.344,-1.824 0.328,-1.828 0.317,-1.828 0.301,-1.832 0.285,-1.832 0.269,-1.84 0.258,-1.836 0.242,-1.84 0.227,-1.844 0.215,-1.843 0.199,-1.848 0.183,-1.844 0.168,-1.851 0.157,-1.848 0.136,-1.852 0.125,-1.851 0.114,-1.856 0.093,-1.851 0.082,-1.856 0.067,-1.855 0.051,-1.856 0.039,-1.855 0.019,-1.859 0.01,-1.856 h 9 l -0.01,1.93 -0.023,1.926 -0.039,1.929 -0.051,1.926 -0.07,1.926 -0.082,1.926 -0.102,1.925 -0.113,1.926 -0.133,1.922 -0.145,1.922 -0.16,1.922 -0.176,1.918 -0.191,1.922 -0.203,1.914 -0.223,1.918 -0.238,1.91 -0.25,1.914 -0.266,1.906 -0.281,1.91 -0.297,1.903 -0.312,1.902 -0.328,1.902 -0.344,1.895 -0.356,1.894 -0.375,1.895 -0.386,1.887 -0.403,1.882 -0.418,1.883 -0.429,1.879 -0.45,1.875 -0.461,1.875 -0.476,1.867 -0.492,1.864 -0.504,1.859 -0.524,1.855 -0.535,1.852 -0.551,1.848 -0.566,1.843 -0.578,1.84 -0.594,1.832 -0.609,1.832 -0.621,1.821 -0.641,1.82 -0.652,1.816 -0.664,1.809 -0.684,1.801 -0.691,1.801 -0.711,1.793 -0.723,1.785 -0.738,1.781 -0.754,1.773 -0.766,1.77 -0.777,1.766 -0.797,1.753 -0.805,1.75 -0.824,1.747 -0.836,1.738 -0.847,1.73 -0.864,1.723 -0.875,1.719 -0.89,1.707 -0.907,1.703 -0.914,1.695 -0.933,1.692 -0.942,1.679 -0.957,1.672 -0.972,1.668 -0.981,1.656 -1,1.653 -1.008,1.64 -1.023,1.633 -1.035,1.625 -1.051,1.621 -1.059,1.606 -1.078,1.601 -1.086,1.594 -1.097,1.582 -1.114,1.578 -1.125,1.563 -1.136,1.558 -1.149,1.547 -1.16,1.539 -1.176,1.531 -1.183,1.52 -1.199,1.508 -1.211,1.504 -1.219,1.492 -1.235,1.48 -1.246,1.473 -1.254,1.461 -1.269,1.453 -1.281,1.441 -1.289,1.43 -1.301,1.422 -1.317,1.41 -1.324,1.403 -1.336,1.39 -1.347,1.379 -1.356,1.367 -1.371,1.36 -1.379,1.343 -1.387,1.336 -1.402,1.325 -1.41,1.316 -1.422,1.301 -1.434,1.293 -1.441,1.277 -1.449,1.27 -1.465,1.257 -1.473,1.243 -1.48,1.234 -1.492,1.223 -1.5,1.207 -1.508,1.199 -1.524,1.187 -1.527,1.172 -1.539,1.16 -1.547,1.153 -1.558,1.136 -1.567,1.122 -1.574,1.113 -1.582,1.097 -1.594,1.09 -1.601,1.075 -1.61,1.058 -1.617,1.051 -1.625,1.035 -1.633,1.024 -1.644,1.011 -1.649,0.996 -1.66,0.981 -1.664,0.972 -1.672,0.957 -1.683,0.946 -1.688,0.929 -1.695,0.918 -1.703,0.903 -1.711,0.89 -1.715,0.875 -1.723,0.864 -1.734,0.851 -1.735,0.832 -1.746,0.825 -1.75,0.808 -1.758,0.793 -1.761,0.777 -1.77,0.77 -1.773,0.75 -1.781,0.738 -1.789,0.723 -1.79,0.711 -1.8,0.695 -1.805,0.68 -1.809,0.668 -1.812,0.652 -1.82,0.637 -1.825,0.625 -1.828,0.605 -1.832,0.594 -1.84,0.582 -1.843,0.563 -1.848,0.55 -1.852,0.539 -1.855,0.52 -1.859,0.508 -1.868,0.488 -1.867,0.477 -1.871,0.464 -1.875,0.446 -1.879,0.433 -1.883,0.418 -1.882,0.403 -1.891,0.386 -1.891,0.371 -1.894,0.36 -1.899,0.34 -1.898,0.328 -1.902,0.312 -1.907,0.297 -1.906,0.281 -1.91,0.266 -1.91,0.254 -1.914,0.234 -1.914,0.223 -1.918,0.207 -1.918,0.191 -1.918,0.172 -1.922,0.164 -1.922,0.145 -1.926,0.129 -1.922,0.113 -1.925,0.102 -1.926,0.082 -1.926,0.07 -1.93,0.055 -1.926,0.039 -1.929,0.019 -1.926,0.008 v -9 z" />
          <path
             id="path1202"
             style="fill:#d7a23f;fill-opacity:1;fill-rule:nonzero;stroke:none"
             d="m 1761.402,239.574 0.036,-1.715 0.046,-1.711 0.063,-1.714 0.074,-1.711 0.086,-1.711 0.102,-1.711 0.117,-1.711 0.129,-1.707 0.14,-1.707 0.157,-1.707 0.171,-1.707 0.184,-1.703 0.195,-1.704 0.211,-1.699 0.223,-1.699 0.238,-1.699 0.25,-1.692 0.266,-1.695 0.277,-1.691 0.289,-1.688 0.305,-1.687 0.316,-1.684 0.332,-1.68 0.344,-1.679 0.359,-1.676 0.372,-1.672 0.382,-1.672 0.399,-1.668 0.41,-1.66 0.422,-1.664 0.437,-1.656 0.45,-1.653 0.464,-1.648 0.477,-1.648 0.488,-1.641 0.504,-1.637 0.516,-1.637 0.527,-1.628 0.539,-1.629 0.555,-1.621 0.566,-1.618 0.582,-1.609 0.59,-1.609 0.606,-1.602 0.617,-1.598 0.633,-1.593 0.644,-1.59 0.656,-1.582 0.668,-1.578 0.68,-1.575 0.692,-1.566 0.707,-1.562 0.718,-1.555 0.731,-1.551 0.742,-1.543 0.754,-1.539 0.765,-1.531 0.782,-1.528 0.789,-1.519 0.804,-1.516 0.817,-1.508 0.828,-1.5 0.836,-1.492 0.851,-1.488 0.864,-1.48 0.875,-1.473 0.887,-1.469 0.898,-1.457 0.906,-1.453 0.922,-1.445 0.934,-1.438 0.941,-1.433 0.957,-1.422 0.965,-1.414 0.977,-1.407 0.988,-1.402 1,-1.391 1.012,-1.382 1.019,-1.379 1.035,-1.367 1.043,-1.36 1.051,-1.351 1.066,-1.34 1.075,-1.336 1.085,-1.324 1.098,-1.321 1.106,-1.304 1.117,-1.301 1.129,-1.293 1.136,-1.281 1.149,-1.27 1.156,-1.266 1.168,-1.253 1.176,-1.247 1.187,-1.234 1.2,-1.227 1.207,-1.214 1.214,-1.207 1.227,-1.2 1.234,-1.187 1.246,-1.176 1.254,-1.168 1.266,-1.156 1.27,-1.149 1.281,-1.136 1.293,-1.129 1.301,-1.117 1.304,-1.106 1.321,-1.097 1.324,-1.086 1.336,-1.075 1.34,-1.066 1.351,-1.051 1.359,-1.043 1.368,-1.035 1.379,-1.02 1.382,-1.011 1.391,-1 1.402,-0.989 1.407,-0.976 1.414,-0.965 1.422,-0.957 1.433,-0.941 1.438,-0.934 1.445,-0.922 1.453,-0.906 1.457,-0.899 1.469,-0.886 1.473,-0.875 1.48,-0.863 1.488,-0.852 1.492,-0.836 1.5,-0.828 1.508,-0.817 1.516,-0.804 1.519,-0.789 1.528,-0.778 1.531,-0.769 1.539,-0.754 1.543,-0.742 1.551,-0.731 1.555,-0.718 1.562,-0.708 1.566,-0.691 1.575,-0.68 1.578,-0.668 1.582,-0.656 1.59,-0.644 1.593,-0.633 1.598,-0.617 1.602,-0.606 1.609,-0.59 1.609,-0.582 1.618,-0.566 1.621,-0.555 1.629,-0.539 1.628,-0.527 1.637,-0.516 1.637,-0.504 1.641,-0.488 1.648,-0.477 1.648,-0.464 1.653,-0.45 1.656,-0.437 1.664,-0.422 1.66,-0.41 1.668,-0.399 1.672,-0.382 1.672,-0.371 1.676,-0.36 1.679,-0.344 1.68,-0.332 1.684,-0.316 1.687,-0.305 1.688,-0.289 1.691,-0.277 1.695,-0.266 1.692,-0.25 1.699,-0.238 1.699,-0.223 1.699,-0.211 1.704,-0.195 1.703,-0.184 1.707,-0.171 1.707,-0.157 1.707,-0.14 1.707,-0.129 1.711,-0.117 1.711,-0.102 1.711,-0.086 1.711,-0.074 1.714,-0.063 1.711,-0.047 1.715,-0.035 1.711,-0.019 1.715,-0.008 v 9 l -1.641,0.008 -1.644,0.019 -1.641,0.032 -1.64,0.046 -1.641,0.059 -1.645,0.07 -1.636,0.086 -1.641,0.098 -1.637,0.109 -1.64,0.125 -1.637,0.137 -1.633,0.149 -1.633,0.164 -1.632,0.175 -1.633,0.188 -1.629,0.199 -1.629,0.215 -1.629,0.226 -1.621,0.243 -1.625,0.254 -1.621,0.265 -1.617,0.278 -1.618,0.293 -1.613,0.304 -1.609,0.317 -1.61,0.328 -1.605,0.343 -1.605,0.356 -1.598,0.367 -1.598,0.383 -1.594,0.394 -1.593,0.403 -1.586,0.422 -1.586,0.429 -1.582,0.446 -1.578,0.457 -1.575,0.468 -1.566,0.481 -1.566,0.492 -1.563,0.508 -1.558,0.519 -1.555,0.532 -1.551,0.543 -1.543,0.554 -1.543,0.567 -1.535,0.582 -1.531,0.59 -1.528,0.605 -1.523,0.617 -1.516,0.629 -1.511,0.641 -1.508,0.652 -1.504,0.664 -1.496,0.676 -1.488,0.688 -1.489,0.699 -1.48,0.711 -1.473,0.726 -1.469,0.735 -1.461,0.746 -1.457,0.758 -1.453,0.769 -1.441,0.781 -1.438,0.793 -1.433,0.805 -1.426,0.816 -1.418,0.825 -1.414,0.839 -1.406,0.848 -1.399,0.859 -1.39,0.872 -1.387,0.882 -1.375,0.895 -1.371,0.906 -1.363,0.914 -1.36,0.926 -1.347,0.934 -1.34,0.949 -1.336,0.957 -1.324,0.969 -1.321,0.98 -1.308,0.988 -1.305,1 -1.297,1.008 -1.285,1.024 -1.277,1.031 -1.27,1.039 -1.266,1.051 -1.254,1.058 -1.242,1.071 -1.238,1.082 -1.227,1.089 -1.222,1.098 -1.211,1.113 -1.199,1.118 -1.196,1.129 -1.183,1.136 -1.176,1.149 -1.164,1.156 -1.156,1.164 -1.149,1.176 -1.137,1.183 -1.128,1.196 -1.118,1.199 -1.113,1.211 -1.098,1.222 -1.089,1.227 -1.082,1.238 -1.071,1.243 -1.058,1.253 -1.051,1.266 -1.039,1.27 -1.031,1.277 -1.024,1.285 -1.008,1.297 -1,1.305 -0.988,1.308 -0.98,1.321 -0.969,1.324 -0.957,1.336 -0.949,1.34 -0.934,1.347 -0.926,1.36 -0.914,1.363 -0.906,1.371 -0.895,1.375 -0.882,1.387 -0.872,1.39 -0.859,1.399 -0.848,1.406 -0.839,1.414 -0.825,1.418 -0.816,1.426 -0.805,1.433 -0.793,1.438 -0.781,1.441 -0.769,1.453 -0.758,1.457 -0.746,1.461 -0.735,1.469 -0.726,1.473 -0.711,1.48 -0.699,1.489 -0.688,1.488 -0.676,1.496 -0.664,1.504 -0.652,1.508 -0.641,1.511 -0.629,1.516 -0.617,1.523 -0.605,1.528 -0.59,1.531 -0.582,1.535 -0.567,1.543 -0.554,1.543 -0.543,1.551 -0.532,1.555 -0.519,1.558 -0.508,1.563 -0.492,1.566 -0.481,1.566 -0.468,1.575 -0.457,1.578 -0.446,1.582 -0.429,1.586 -0.422,1.586 -0.403,1.593 -0.394,1.594 -0.383,1.598 -0.367,1.598 -0.356,1.605 -0.343,1.605 -0.328,1.61 -0.317,1.609 -0.305,1.614 -0.292,1.617 -0.278,1.617 -0.265,1.621 -0.254,1.625 -0.243,1.621 -0.226,1.629 -0.215,1.629 -0.199,1.629 -0.188,1.633 -0.175,1.632 -0.165,1.633 -0.148,1.633 -0.137,1.637 -0.125,1.64 -0.109,1.637 -0.098,1.641 -0.086,1.636 -0.07,1.645 -0.059,1.641 -0.046,1.64 -0.032,1.641 -0.019,1.644 -0.01,1.641 h -9 l 0.01,-1.715 z" />
          <path
             id="path1204"
             style="fill:#d7a23f;fill-opacity:1;fill-rule:nonzero;stroke:none"
             d="m 1734.406,239.145 0.039,-1.926 0.051,-1.93 0.07,-1.926 0.082,-1.925 0.102,-1.926 0.113,-1.922 0.133,-1.926 0.145,-1.922 0.16,-1.922 0.176,-1.918 0.191,-1.918 0.203,-1.918 0.223,-1.914 0.238,-1.914 0.25,-1.91 0.266,-1.91 0.281,-1.906 0.297,-1.907 0.312,-1.902 0.328,-1.898 0.344,-1.899 0.356,-1.894 0.375,-1.891 0.386,-1.891 0.403,-1.882 0.418,-1.883 0.429,-1.879 0.45,-1.875 0.461,-1.871 0.476,-1.867 0.492,-1.868 0.504,-1.859 0.524,-1.855 0.535,-1.852 0.551,-1.848 0.566,-1.843 0.578,-1.84 0.594,-1.832 0.609,-1.828 0.621,-1.825 0.641,-1.82 0.652,-1.812 0.664,-1.809 0.684,-1.805 0.691,-1.8 0.711,-1.789 0.723,-1.79 0.738,-1.781 0.754,-1.773 0.766,-1.77 0.777,-1.762 0.797,-1.757 0.805,-1.75 0.824,-1.746 0.836,-1.735 0.847,-1.734 0.864,-1.723 0.875,-1.715 0.89,-1.711 0.907,-1.703 0.914,-1.695 0.933,-1.688 0.942,-1.683 0.957,-1.672 0.972,-1.664 0.981,-1.66 1,-1.649 1.008,-1.644 1.023,-1.633 1.035,-1.625 1.051,-1.617 1.059,-1.61 1.078,-1.601 1.086,-1.594 1.097,-1.582 1.114,-1.574 1.125,-1.567 1.136,-1.558 1.149,-1.547 1.16,-1.539 1.176,-1.527 1.183,-1.524 1.199,-1.508 1.211,-1.5 1.219,-1.492 1.235,-1.48 1.246,-1.473 1.254,-1.465 1.269,-1.449 1.281,-1.441 1.289,-1.434 1.301,-1.422 1.317,-1.41 1.324,-1.402 1.336,-1.387 1.347,-1.379 1.356,-1.371 1.371,-1.356 1.379,-1.347 1.387,-1.336 1.402,-1.324 1.41,-1.317 1.422,-1.301 1.434,-1.289 1.441,-1.281 1.449,-1.269 1.465,-1.254 1.473,-1.246 1.48,-1.235 1.492,-1.219 1.5,-1.21 1.508,-1.2 1.524,-1.183 1.527,-1.176 1.539,-1.16 1.547,-1.149 1.558,-1.136 1.567,-1.125 1.574,-1.114 1.582,-1.097 1.594,-1.086 1.601,-1.078 1.61,-1.059 1.617,-1.051 1.625,-1.035 1.633,-1.023 1.644,-1.008 1.649,-1 1.66,-0.981 1.664,-0.972 1.672,-0.957 1.683,-0.942 1.688,-0.933 1.695,-0.914 1.703,-0.907 1.711,-0.89 1.715,-0.875 1.723,-0.864 1.734,-0.847 1.735,-0.836 1.746,-0.824 1.75,-0.805 1.758,-0.797 1.761,-0.777 1.77,-0.766 1.773,-0.754 1.781,-0.738 1.789,-0.723 1.79,-0.711 1.8,-0.691 1.805,-0.684 1.809,-0.664 1.812,-0.652 1.82,-0.641 1.825,-0.621 1.828,-0.609 1.832,-0.594 1.84,-0.578 1.843,-0.566 1.848,-0.551 1.852,-0.535 1.855,-0.524 1.859,-0.504 1.868,-0.492 1.867,-0.477 1.871,-0.46 1.875,-0.45 1.879,-0.429 1.883,-0.418 1.882,-0.403 1.891,-0.386 1.891,-0.375 1.894,-0.356 1.899,-0.344 1.898,-0.328 1.902,-0.312 1.907,-0.297 1.906,-0.281 1.91,-0.266 1.91,-0.25 1.914,-0.238 1.914,-0.223 1.918,-0.203 1.918,-0.191 1.918,-0.176 1.922,-0.16 1.922,-0.145 1.926,-0.133 1.922,-0.113 1.925,-0.102 1.926,-0.082 1.926,-0.07 1.93,-0.051 1.926,-0.039 1.929,-0.023 1.926,-0.008 v 9 l -1.855,0.008 -1.856,0.019 -1.859,0.039 -1.856,0.051 -1.855,0.067 -1.852,0.082 -1.855,0.093 -1.852,0.114 -1.855,0.125 -1.848,0.136 -1.852,0.157 -1.847,0.168 -1.848,0.183 -1.847,0.199 -1.844,0.215 -1.84,0.227 -1.844,0.242 -1.836,0.258 -1.836,0.269 -1.836,0.286 -1.832,0.3 -1.828,0.317 -1.828,0.328 -1.824,0.344 -1.82,0.359 -1.821,0.375 -1.812,0.387 -1.817,0.402 -1.808,0.414 -1.805,0.434 -1.801,0.441 -1.801,0.461 -1.793,0.473 -1.792,0.488 -1.786,0.5 -1.785,0.516 -1.777,0.531 -1.777,0.547 -1.77,0.554 -1.766,0.575 -1.761,0.586 -1.758,0.601 -1.75,0.613 -1.746,0.629 -1.742,0.641 -1.739,0.656 -1.73,0.668 -1.727,0.684 -1.722,0.695 -1.715,0.711 -1.707,0.727 -1.703,0.734 -1.7,0.754 -1.691,0.762 -1.688,0.781 -1.675,0.789 -1.676,0.805 -1.664,0.816 -1.66,0.832 -1.657,0.844 -1.644,0.859 -1.641,0.871 -1.633,0.879 -1.625,0.899 -1.621,0.91 -1.609,0.922 -1.605,0.933 -1.594,0.945 -1.59,0.961 -1.582,0.973 -1.574,0.984 -1.567,1 -1.554,1.008 -1.551,1.024 -1.543,1.031 -1.531,1.047 -1.528,1.062 -1.515,1.071 -1.508,1.082 -1.5,1.093 -1.488,1.106 -1.481,1.121 -1.473,1.129 -1.464,1.14 -1.457,1.153 -1.446,1.168 -1.433,1.176 -1.43,1.187 -1.414,1.199 -1.41,1.211 -1.399,1.219 -1.386,1.234 -1.379,1.243 -1.368,1.253 -1.359,1.266 -1.351,1.274 -1.336,1.289 -1.329,1.296 -1.316,1.309 -1.309,1.316 -1.296,1.329 -1.289,1.336 -1.274,1.351 -1.266,1.359 -1.253,1.368 -1.243,1.379 -1.234,1.386 -1.219,1.399 -1.211,1.41 -1.199,1.414 -1.187,1.43 -1.176,1.433 -1.168,1.446 -1.152,1.457 -1.141,1.464 -1.129,1.473 -1.121,1.481 -1.106,1.488 -1.093,1.5 -1.082,1.508 -1.071,1.515 -1.062,1.528 -1.047,1.531 -1.031,1.543 -1.024,1.551 -1.008,1.554 -1,1.567 -0.984,1.574 -0.973,1.582 -0.961,1.59 -0.945,1.594 -0.933,1.605 -0.922,1.609 -0.91,1.621 -0.899,1.625 -0.879,1.633 -0.871,1.641 -0.859,1.644 -0.844,1.657 -0.832,1.66 -0.816,1.664 -0.805,1.676 -0.789,1.675 -0.781,1.688 -0.762,1.691 -0.754,1.7 -0.734,1.703 -0.727,1.707 -0.711,1.715 -0.695,1.722 -0.684,1.727 -0.668,1.73 -0.656,1.739 -0.641,1.742 -0.629,1.746 -0.613,1.75 -0.601,1.758 -0.586,1.761 -0.575,1.766 -0.558,1.77 -0.543,1.777 -0.531,1.777 -0.516,1.785 -0.5,1.786 -0.488,1.793 -0.473,1.792 -0.461,1.801 -0.441,1.801 -0.434,1.805 -0.414,1.808 -0.402,1.817 -0.387,1.812 -0.375,1.821 -0.359,1.82 -0.344,1.824 -0.328,1.828 -0.317,1.828 -0.301,1.832 -0.285,1.836 -0.269,1.836 -0.258,1.836 -0.242,1.844 -0.227,1.84 -0.215,1.843 -0.199,1.848 -0.183,1.848 -0.168,1.847 -0.157,1.852 -0.136,1.848 -0.125,1.855 -0.114,1.852 -0.093,1.855 -0.082,1.852 -0.067,1.855 -0.051,1.856 -0.039,1.859 -0.019,1.856 -0.01,1.855 h -9 l 0.01,-1.926 z" />
          <path
             id="path1206"
             style="fill:#d7a23f;fill-opacity:1;fill-rule:nonzero;stroke:none"
             d="m 2184.348,239.715 -0.032,-1.641 -0.046,-1.64 -0.059,-1.641 -0.07,-1.645 -0.086,-1.636 -0.098,-1.641 -0.109,-1.637 -0.125,-1.64 -0.137,-1.637 -0.148,-1.633 -0.165,-1.633 -0.175,-1.632 -0.188,-1.633 -0.199,-1.629 -0.215,-1.629 -0.226,-1.629 -0.243,-1.621 -0.254,-1.625 -0.265,-1.621 -0.278,-1.617 -0.292,-1.617 -0.305,-1.614 -0.317,-1.609 -0.328,-1.61 -0.343,-1.605 -0.356,-1.605 -0.367,-1.598 -0.383,-1.598 -0.394,-1.594 -0.403,-1.593 -0.422,-1.586 -0.429,-1.586 -0.446,-1.582 -0.457,-1.578 -0.468,-1.575 -0.481,-1.566 -0.492,-1.566 -0.508,-1.563 -0.519,-1.558 -0.532,-1.555 -0.543,-1.551 -0.554,-1.543 -0.567,-1.543 -0.582,-1.535 -0.59,-1.531 -0.605,-1.528 -0.617,-1.523 -0.629,-1.516 -0.641,-1.511 -0.652,-1.508 -0.664,-1.504 -0.676,-1.496 -0.688,-1.488 -0.699,-1.489 -0.711,-1.48 -0.726,-1.473 -0.735,-1.469 -0.746,-1.461 -0.758,-1.457 -0.769,-1.453 -0.781,-1.441 -0.793,-1.438 -0.805,-1.433 -0.816,-1.426 -0.825,-1.418 -0.839,-1.414 -0.848,-1.406 -0.859,-1.399 -0.872,-1.39 -0.882,-1.387 -0.895,-1.375 -0.906,-1.371 -0.914,-1.363 -0.926,-1.36 -0.934,-1.347 -0.949,-1.34 -0.957,-1.336 -0.969,-1.324 -0.98,-1.321 -0.988,-1.308 -1,-1.305 -1.008,-1.297 -1.024,-1.285 -1.031,-1.277 -1.039,-1.27 -1.051,-1.266 -1.058,-1.253 -1.071,-1.243 -1.082,-1.238 -1.089,-1.227 -1.098,-1.222 -1.113,-1.211 -1.118,-1.199 -1.128,-1.196 -1.137,-1.183 -1.149,-1.176 -1.156,-1.164 -1.164,-1.156 -1.176,-1.149 -1.183,-1.136 -1.196,-1.129 -1.199,-1.118 -1.211,-1.113 -1.222,-1.098 -1.227,-1.089 -1.238,-1.082 -1.242,-1.071 -1.254,-1.058 -1.266,-1.051 -1.27,-1.039 -1.277,-1.031 -1.285,-1.024 -1.297,-1.008 -1.305,-1 -1.308,-0.988 -1.321,-0.98 -1.324,-0.969 -1.336,-0.957 -1.34,-0.949 -1.347,-0.934 -1.36,-0.926 -1.363,-0.914 -1.371,-0.906 -1.375,-0.895 -1.387,-0.882 -1.39,-0.872 -1.399,-0.859 -1.406,-0.848 -1.414,-0.839 -1.418,-0.825 -1.426,-0.816 -1.433,-0.805 -1.438,-0.793 -1.441,-0.781 -1.453,-0.769 -1.457,-0.758 -1.461,-0.746 -1.469,-0.735 -1.473,-0.726 -1.48,-0.711 -1.489,-0.699 -1.488,-0.688 -1.496,-0.676 -1.504,-0.664 -1.508,-0.652 -1.511,-0.641 -1.516,-0.629 -1.523,-0.617 -1.528,-0.605 -1.531,-0.59 -1.535,-0.582 -1.543,-0.567 -1.543,-0.554 -1.551,-0.543 -1.555,-0.532 -1.558,-0.519 -1.563,-0.508 -1.566,-0.492 -1.566,-0.481 -1.575,-0.468 -1.578,-0.457 -1.582,-0.446 -1.586,-0.429 -1.586,-0.422 -1.593,-0.403 -1.594,-0.394 -1.598,-0.383 -1.598,-0.367 -1.605,-0.356 -1.605,-0.343 -1.61,-0.328 -1.609,-0.317 -1.613,-0.304 -1.618,-0.293 -1.617,-0.278 -1.621,-0.265 -1.625,-0.254 -1.621,-0.243 -1.629,-0.226 -1.629,-0.215 -1.629,-0.199 -1.633,-0.188 -1.632,-0.175 -1.633,-0.164 -1.633,-0.149 -1.637,-0.137 -1.64,-0.125 -1.637,-0.109 -1.641,-0.098 -1.636,-0.086 -1.645,-0.07 -1.641,-0.059 -1.64,-0.046 -1.641,-0.032 -1.644,-0.019 -1.641,-0.008 v -9 l 1.715,0.008 1.711,0.019 1.715,0.035 1.711,0.047 1.714,0.063 1.711,0.074 1.711,0.086 1.711,0.102 1.711,0.117 1.707,0.129 1.707,0.14 1.707,0.157 1.707,0.171 1.703,0.184 1.704,0.195 1.699,0.211 1.699,0.223 1.699,0.238 1.692,0.25 1.695,0.266 1.691,0.277 1.688,0.289 1.687,0.305 1.684,0.316 1.68,0.332 1.679,0.344 1.676,0.36 1.672,0.371 1.672,0.382 1.668,0.399 1.66,0.41 1.664,0.422 1.656,0.437 1.653,0.45 1.648,0.464 1.648,0.477 1.641,0.488 1.637,0.504 1.637,0.516 1.628,0.527 1.625,0.539 1.625,0.555 1.618,0.566 1.609,0.582 1.609,0.59 1.602,0.606 1.598,0.617 1.593,0.633 1.59,0.644 1.582,0.656 1.578,0.668 1.575,0.68 1.566,0.691 1.562,0.708 1.555,0.718 1.551,0.731 1.543,0.742 1.539,0.754 1.531,0.769 1.528,0.778 1.519,0.789 1.516,0.804 1.508,0.817 1.5,0.828 1.492,0.836 1.488,0.852 1.48,0.863 1.473,0.875 1.469,0.886 1.457,0.899 1.453,0.906 1.445,0.922 1.438,0.934 1.433,0.941 1.422,0.957 1.414,0.965 1.407,0.976 1.402,0.989 1.391,1 1.382,1.011 1.379,1.02 1.368,1.035 1.359,1.043 1.351,1.051 1.34,1.066 1.336,1.075 1.324,1.086 1.321,1.097 1.304,1.106 1.301,1.117 1.293,1.129 1.281,1.136 1.27,1.149 1.266,1.156 1.254,1.168 1.246,1.176 1.234,1.187 1.227,1.2 1.214,1.207 1.207,1.214 1.2,1.227 1.187,1.234 1.176,1.247 1.168,1.253 1.156,1.266 1.149,1.27 1.136,1.281 1.129,1.293 1.117,1.301 1.106,1.304 1.098,1.321 1.085,1.324 1.075,1.336 1.066,1.34 1.051,1.351 1.043,1.36 1.035,1.367 1.019,1.379 1.012,1.382 1,1.391 0.988,1.402 0.977,1.407 0.965,1.414 0.957,1.422 0.941,1.433 0.934,1.438 0.922,1.445 0.906,1.453 0.898,1.457 0.887,1.469 0.875,1.473 0.864,1.48 0.851,1.488 0.836,1.492 0.828,1.5 0.817,1.508 0.804,1.516 0.789,1.519 0.782,1.528 0.765,1.531 0.754,1.539 0.742,1.543 0.731,1.551 0.718,1.555 0.707,1.562 0.692,1.566 0.68,1.575 0.668,1.578 0.656,1.582 0.644,1.59 0.633,1.593 0.617,1.598 0.606,1.602 0.59,1.609 0.582,1.609 0.566,1.618 0.555,1.621 0.539,1.629 0.527,1.628 0.516,1.637 0.504,1.637 0.488,1.641 0.477,1.648 0.464,1.648 0.45,1.653 0.437,1.656 0.422,1.664 0.41,1.66 0.399,1.668 0.382,1.672 0.372,1.672 0.359,1.676 0.344,1.679 0.332,1.68 0.316,1.684 0.305,1.687 0.289,1.688 0.277,1.691 0.266,1.695 0.25,1.692 0.238,1.699 0.223,1.699 0.211,1.699 0.195,1.704 0.184,1.703 0.171,1.707 0.157,1.707 0.14,1.707 0.129,1.707 0.117,1.711 0.102,1.711 0.086,1.711 0.074,1.711 0.063,1.714 0.046,1.711 0.036,1.715 0.019,1.711 0.01,1.715 h -9 l -0.01,-1.641 z" />
          <path
             id="path1208"
             style="fill:#d7a23f;fill-opacity:1;fill-rule:nonzero;stroke:none"
             d="m 2211.348,239.289 -0.039,-1.859 -0.051,-1.856 -0.067,-1.855 -0.082,-1.852 -0.093,-1.855 -0.114,-1.852 -0.125,-1.855 -0.136,-1.848 -0.157,-1.852 -0.168,-1.847 -0.183,-1.848 -0.199,-1.848 -0.215,-1.843 -0.227,-1.84 -0.242,-1.844 -0.258,-1.836 -0.269,-1.836 -0.285,-1.836 -0.301,-1.832 -0.317,-1.828 -0.328,-1.828 -0.344,-1.824 -0.359,-1.82 -0.375,-1.821 -0.387,-1.812 -0.402,-1.817 -0.414,-1.808 -0.434,-1.805 -0.441,-1.801 -0.461,-1.801 -0.473,-1.792 -0.488,-1.793 -0.5,-1.786 -0.516,-1.785 -0.531,-1.777 -0.543,-1.777 -0.558,-1.77 -0.575,-1.766 -0.586,-1.761 -0.601,-1.758 -0.613,-1.75 -0.629,-1.746 -0.641,-1.742 -0.656,-1.739 -0.668,-1.73 -0.684,-1.727 -0.695,-1.722 -0.711,-1.715 -0.727,-1.707 -0.734,-1.703 -0.754,-1.7 -0.762,-1.691 -0.781,-1.688 -0.789,-1.675 -0.805,-1.676 -0.816,-1.664 -0.832,-1.66 -0.844,-1.657 -0.859,-1.644 -0.871,-1.641 -0.879,-1.633 -0.899,-1.625 -0.91,-1.621 -0.922,-1.609 -0.933,-1.605 -0.945,-1.594 -0.961,-1.59 -0.973,-1.582 -0.984,-1.574 -1,-1.567 -1.008,-1.554 -1.024,-1.551 -1.031,-1.543 -1.047,-1.531 -1.062,-1.528 -1.071,-1.515 -1.082,-1.508 -1.093,-1.5 -1.106,-1.488 -1.121,-1.481 -1.129,-1.473 -1.141,-1.464 -1.152,-1.457 -1.168,-1.446 -1.176,-1.433 -1.187,-1.43 -1.199,-1.414 -1.211,-1.41 -1.219,-1.399 -1.234,-1.386 -1.243,-1.379 -1.253,-1.368 -1.266,-1.359 -1.274,-1.351 -1.289,-1.336 -1.296,-1.329 -1.309,-1.316 -1.316,-1.309 -1.329,-1.296 -1.336,-1.289 -1.351,-1.274 -1.359,-1.266 -1.368,-1.253 -1.379,-1.243 -1.386,-1.234 -1.399,-1.219 -1.41,-1.211 -1.414,-1.199 -1.43,-1.187 -1.433,-1.176 -1.446,-1.168 -1.457,-1.153 -1.464,-1.14 -1.473,-1.129 -1.481,-1.121 -1.488,-1.106 -1.5,-1.093 -1.508,-1.082 -1.515,-1.071 -1.528,-1.062 -1.531,-1.047 -1.543,-1.031 -1.551,-1.024 -1.554,-1.008 -1.567,-1 -1.574,-0.984 -1.582,-0.973 -1.59,-0.961 -1.594,-0.945 -1.605,-0.933 -1.609,-0.922 -1.621,-0.91 -1.625,-0.899 -1.633,-0.879 -1.641,-0.871 -1.644,-0.859 -1.657,-0.844 -1.66,-0.832 -1.664,-0.816 -1.676,-0.805 -1.675,-0.789 -1.688,-0.781 -1.691,-0.762 -1.7,-0.754 -1.703,-0.734 -1.707,-0.727 -1.715,-0.711 -1.722,-0.695 -1.727,-0.684 -1.73,-0.668 -1.739,-0.656 -1.742,-0.641 -1.746,-0.629 -1.75,-0.613 -1.758,-0.601 -1.761,-0.586 -1.766,-0.575 -1.77,-0.554 -1.777,-0.547 -1.777,-0.531 -1.785,-0.516 -1.786,-0.5 -1.792,-0.488 -1.793,-0.473 -1.801,-0.461 -1.801,-0.441 -1.805,-0.434 -1.808,-0.414 -1.817,-0.402 -1.812,-0.387 -1.821,-0.375 -1.82,-0.359 -1.824,-0.344 -1.828,-0.328 -1.828,-0.317 -1.832,-0.3 -1.836,-0.286 -1.836,-0.269 -1.836,-0.258 -1.844,-0.242 -1.84,-0.227 -1.844,-0.215 -1.847,-0.199 -1.848,-0.183 -1.847,-0.168 -1.852,-0.157 -1.848,-0.136 -1.855,-0.125 -1.852,-0.114 -1.855,-0.093 -1.852,-0.082 -1.855,-0.067 -1.856,-0.051 -1.859,-0.039 L 1979.23,9.008 1977.375,9 V 0 l 1.926,0.008 1.929,0.023 1.926,0.039 1.93,0.051 1.926,0.07 1.926,0.082 1.925,0.102 1.922,0.113 1.926,0.133 1.922,0.145 1.922,0.16 1.918,0.176 1.918,0.191 1.918,0.203 1.914,0.223 1.914,0.238 1.91,0.25 1.91,0.266 1.906,0.281 1.907,0.297 1.902,0.312 1.898,0.328 1.899,0.344 1.894,0.356 1.891,0.375 1.891,0.386 1.882,0.403 1.883,0.418 1.879,0.429 1.875,0.45 1.871,0.46 1.867,0.477 1.868,0.492 1.859,0.504 1.855,0.524 1.852,0.535 1.848,0.551 1.843,0.566 1.84,0.578 1.832,0.594 1.828,0.609 1.825,0.621 1.82,0.641 1.812,0.652 1.809,0.664 1.805,0.684 1.8,0.691 1.79,0.711 1.789,0.723 1.781,0.738 1.773,0.754 1.77,0.766 1.761,0.777 1.758,0.797 1.75,0.805 1.746,0.824 1.735,0.836 1.734,0.847 1.723,0.864 1.715,0.875 1.711,0.89 1.703,0.907 1.695,0.914 1.688,0.933 1.683,0.942 1.672,0.957 1.664,0.972 1.66,0.981 1.649,1 1.644,1.008 1.633,1.023 1.625,1.035 1.617,1.051 1.61,1.059 1.601,1.078 1.594,1.086 1.582,1.097 1.574,1.114 1.567,1.125 1.558,1.136 1.547,1.149 1.539,1.16 1.527,1.176 1.524,1.183 1.508,1.2 1.5,1.21 1.492,1.219 1.48,1.235 1.473,1.246 1.465,1.254 1.449,1.269 1.441,1.281 1.434,1.289 1.422,1.301 1.41,1.317 1.402,1.324 1.387,1.336 1.379,1.347 1.371,1.356 1.356,1.371 1.347,1.379 1.336,1.387 1.324,1.402 1.317,1.41 1.301,1.422 1.289,1.434 1.281,1.441 1.269,1.449 1.254,1.465 1.246,1.473 1.235,1.48 1.219,1.492 1.211,1.5 1.199,1.508 1.183,1.524 1.176,1.527 1.16,1.539 1.149,1.547 1.136,1.558 1.125,1.567 1.114,1.574 1.097,1.582 1.086,1.594 1.078,1.601 1.059,1.61 1.051,1.617 1.035,1.625 1.023,1.633 1.008,1.644 1,1.649 0.981,1.66 0.972,1.664 0.957,1.672 0.942,1.683 0.933,1.688 0.914,1.695 0.907,1.703 0.89,1.711 0.875,1.715 0.864,1.723 0.847,1.734 0.836,1.735 0.824,1.746 0.805,1.75 0.797,1.757 0.777,1.762 0.766,1.77 0.754,1.773 0.738,1.781 0.723,1.79 0.711,1.789 0.691,1.8 0.684,1.805 0.664,1.809 0.652,1.812 0.641,1.82 0.621,1.825 0.609,1.828 0.594,1.832 0.578,1.84 0.566,1.843 0.551,1.848 0.535,1.852 0.524,1.855 0.504,1.859 0.492,1.868 0.476,1.867 0.461,1.871 0.45,1.875 0.429,1.879 0.418,1.883 0.403,1.882 0.386,1.891 0.375,1.891 0.356,1.894 0.344,1.899 0.328,1.898 0.312,1.902 0.297,1.907 0.281,1.906 0.266,1.91 0.25,1.91 0.238,1.914 0.223,1.914 0.203,1.918 0.191,1.918 0.176,1.918 0.16,1.922 0.145,1.922 0.133,1.926 0.113,1.922 0.102,1.926 0.082,1.925 0.07,1.926 0.051,1.93 0.039,1.926 0.023,1.929 0.01,1.926 h -9 l -0.01,-1.855 z" />
          <path
             id="path1210"
             style="fill:#d7a23f;fill-opacity:1;fill-rule:nonzero;stroke:none"
             d="m 2423.949,1667.426 -1.715,-0.031 -1.711,-0.051 -1.714,-0.059 -1.711,-0.074 -1.711,-0.09 -1.711,-0.101 -1.711,-0.118 -1.707,-0.129 -1.707,-0.14 -1.707,-0.156 -1.707,-0.172 -1.703,-0.18 -1.704,-0.199 -1.699,-0.211 -1.699,-0.223 -1.699,-0.238 -1.692,-0.25 -1.695,-0.262 -1.691,-0.277 -1.688,-0.293 -1.687,-0.305 -1.684,-0.316 -1.68,-0.332 -1.679,-0.344 -1.676,-0.359 -1.672,-0.368 -1.672,-0.386 -1.668,-0.395 -1.66,-0.414 -1.664,-0.422 -1.656,-0.437 -1.653,-0.449 -1.648,-0.465 -1.648,-0.477 -1.641,-0.488 -1.637,-0.5 -1.637,-0.516 -1.628,-0.531 -1.629,-0.539 -1.621,-0.555 -1.618,-0.566 -1.609,-0.578 -1.609,-0.594 -1.602,-0.606 -1.598,-0.617 -1.593,-0.633 -1.59,-0.64 -1.582,-0.656 -1.578,-0.668 -1.575,-0.68 -1.566,-0.695 -1.562,-0.707 -1.555,-0.719 -1.551,-0.731 -1.543,-0.742 -1.539,-0.754 -1.531,-0.765 -1.528,-0.782 -1.519,-0.789 -1.516,-0.804 -1.508,-0.817 -1.5,-0.824 -1.492,-0.84 -1.488,-0.851 -1.48,-0.864 -1.473,-0.875 -1.469,-0.886 -1.457,-0.895 -1.453,-0.91 -1.445,-0.922 -1.438,-0.93 -1.433,-0.945 -1.422,-0.953 -1.414,-0.969 -1.407,-0.976 -1.402,-0.989 -1.391,-1 -1.382,-1.011 -1.379,-1.02 -1.368,-1.031 -1.359,-1.043 -1.351,-1.055 -1.34,-1.066 -1.336,-1.074 -1.324,-1.086 -1.321,-1.098 -1.304,-1.106 -1.301,-1.117 -1.293,-1.125 -1.281,-1.14 -1.27,-1.145 -1.266,-1.16 -1.254,-1.168 -1.246,-1.176 -1.234,-1.187 -1.227,-1.199 -1.214,-1.207 -1.207,-1.215 -1.2,-1.227 -1.187,-1.234 -1.176,-1.246 -1.168,-1.254 -1.156,-1.262 -1.149,-1.273 -1.136,-1.282 -1.129,-1.293 -1.117,-1.297 -1.106,-1.308 -1.098,-1.317 -1.085,-1.328 -1.075,-1.332 -1.066,-1.343 -1.051,-1.352 -1.043,-1.359 -1.035,-1.368 -1.019,-1.375 -1.012,-1.386 -1,-1.391 -0.988,-1.398 -0.977,-1.41 -0.965,-1.415 -0.957,-1.421 -0.941,-1.43 -0.934,-1.438 -0.922,-1.445 -0.906,-1.453 -0.898,-1.461 -0.887,-1.465 -0.875,-1.476 -0.864,-1.481 -0.851,-1.488 -0.836,-1.492 -0.828,-1.5 -0.817,-1.508 -0.804,-1.516 -0.789,-1.519 -0.782,-1.524 -0.765,-1.535 -0.754,-1.535 -0.742,-1.547 -0.731,-1.551 -0.718,-1.554 -0.707,-1.563 -0.692,-1.566 -0.68,-1.571 -0.668,-1.578 -0.656,-1.586 -0.644,-1.586 -0.633,-1.593 -0.617,-1.598 -0.606,-1.605 -0.59,-1.606 -0.582,-1.613 -0.566,-1.617 -0.555,-1.622 -0.539,-1.628 -0.527,-1.629 -0.516,-1.633 -0.504,-1.641 -0.488,-1.64 -0.477,-1.649 -0.464,-1.648 -0.45,-1.653 -0.437,-1.656 -0.422,-1.66 -0.41,-1.664 -0.399,-1.668 -0.382,-1.668 -0.372,-1.676 -0.359,-1.676 -0.344,-1.679 -0.332,-1.68 -0.316,-1.684 -0.305,-1.687 -0.289,-1.688 -0.277,-1.691 -0.266,-1.691 -0.25,-1.696 -0.238,-1.699 -0.223,-1.699 -0.211,-1.699 -0.195,-1.703 -0.184,-1.704 -0.171,-1.707 -0.157,-1.703 -0.14,-1.711 -0.129,-1.707 -0.117,-1.711 -0.102,-1.707 -0.086,-1.715 -0.074,-1.71 -0.063,-1.711 -0.046,-1.715 -0.036,-1.711 -0.019,-1.715 -0.01,-1.715 h 9 l 0.01,1.645 0.019,1.64 0.032,1.641 0.046,1.644 0.059,1.641 0.07,1.641 0.086,1.64 0.098,1.637 0.109,1.641 0.125,1.636 0.137,1.637 0.148,1.637 0.165,1.633 0.175,1.632 0.188,1.629 0.199,1.633 0.215,1.629 0.226,1.625 0.243,1.625 0.254,1.621 0.265,1.621 0.278,1.617 0.292,1.618 0.305,1.613 0.317,1.613 0.328,1.606 0.343,1.605 0.356,1.606 0.367,1.601 0.383,1.598 0.394,1.594 0.403,1.589 0.422,1.59 0.429,1.582 0.446,1.582 0.457,1.578 0.468,1.575 0.481,1.57 0.492,1.566 0.508,1.559 0.519,1.559 0.532,1.554 0.543,1.551 0.554,1.547 0.567,1.539 0.582,1.535 0.59,1.531 0.605,1.528 0.617,1.523 0.629,1.516 0.641,1.515 0.652,1.504 0.664,1.504 0.676,1.496 0.688,1.493 0.699,1.484 0.711,1.48 0.726,1.473 0.735,1.469 0.746,1.465 0.758,1.457 0.769,1.449 0.781,1.445 0.793,1.438 0.805,1.429 0.816,1.426 0.825,1.418 0.839,1.414 0.848,1.406 0.859,1.399 0.872,1.39 0.882,1.387 0.895,1.379 0.906,1.371 0.914,1.363 0.926,1.356 0.934,1.348 0.949,1.343 0.957,1.332 0.969,1.329 0.98,1.316 0.988,1.312 1,1.301 1.008,1.297 1.024,1.285 1.031,1.281 1.039,1.27 1.051,1.262 1.058,1.254 1.071,1.246 1.082,1.234 1.089,1.231 1.098,1.218 1.113,1.211 1.118,1.199 1.128,1.196 1.137,1.183 1.149,1.176 1.156,1.164 1.164,1.156 1.176,1.149 1.183,1.137 1.196,1.129 1.199,1.121 1.211,1.109 1.222,1.098 1.227,1.089 1.238,1.083 1.242,1.07 1.254,1.058 1.266,1.051 1.27,1.043 1.277,1.031 1.285,1.02 1.297,1.008 1.305,1 1.308,0.992 1.321,0.977 1.324,0.968 1.336,0.957 1.34,0.95 1.347,0.937 1.36,0.922 1.363,0.918 1.371,0.902 1.375,0.895 1.387,0.883 1.39,0.871 1.399,0.859 1.406,0.852 1.414,0.836 1.418,0.828 1.426,0.812 1.433,0.805 1.438,0.793 1.441,0.781 1.453,0.77 1.457,0.757 1.461,0.75 1.469,0.735 1.473,0.722 1.48,0.711 1.489,0.7 1.488,0.691 1.496,0.676 1.504,0.664 1.508,0.652 1.511,0.641 1.516,0.629 1.523,0.613 1.528,0.605 1.531,0.594 1.535,0.578 1.543,0.567 1.543,0.558 1.551,0.543 1.555,0.532 1.558,0.515 1.563,0.508 1.566,0.492 1.566,0.485 1.575,0.468 1.578,0.457 1.582,0.442 1.586,0.433 1.586,0.418 1.593,0.407 1.594,0.39 1.598,0.383 1.598,0.367 1.605,0.356 1.605,0.343 1.61,0.332 1.609,0.317 1.613,0.301 1.618,0.293 1.617,0.281 1.621,0.265 1.625,0.25 1.621,0.243 1.629,0.226 1.629,0.215 1.629,0.199 1.633,0.192 1.632,0.175 1.633,0.161 1.633,0.152 1.637,0.137 1.64,0.121 1.637,0.109 1.641,0.102 1.636,0.082 1.645,0.074 1.641,0.059 1.64,0.043 1.641,0.035 1.644,0.019 h 1.641 v 9 l -1.715,-0.01 -1.711,-0.019 z" />
          <path
             id="path1212"
             style="fill:#d7a23f;fill-opacity:1;fill-rule:nonzero;stroke:none"
             d="m 2423.52,1694.426 -1.926,-0.039 -1.93,-0.055 -1.926,-0.07 -1.926,-0.082 -1.925,-0.102 -1.922,-0.113 -1.926,-0.129 -1.922,-0.145 -1.922,-0.164 -1.918,-0.172 -1.918,-0.191 -1.918,-0.207 -1.914,-0.223 -1.914,-0.234 -1.91,-0.254 -1.91,-0.266 -1.906,-0.281 -1.907,-0.297 -1.902,-0.312 -1.898,-0.328 -1.899,-0.34 -1.894,-0.36 -1.891,-0.371 -1.891,-0.386 -1.882,-0.403 -1.883,-0.418 -1.879,-0.433 -1.875,-0.446 -1.871,-0.464 -1.867,-0.477 -1.868,-0.488 -1.859,-0.508 -1.855,-0.52 -1.852,-0.539 -1.848,-0.55 -1.843,-0.563 -1.84,-0.582 -1.832,-0.594 -1.828,-0.605 -1.825,-0.625 -1.82,-0.637 -1.812,-0.652 -1.809,-0.668 -1.805,-0.68 -1.8,-0.695 -1.79,-0.711 -1.789,-0.723 -1.781,-0.738 -1.773,-0.75 -1.77,-0.77 -1.761,-0.777 -1.758,-0.793 -1.75,-0.808 -1.746,-0.825 -1.735,-0.832 -1.734,-0.851 -1.723,-0.864 -1.715,-0.875 -1.711,-0.89 -1.703,-0.903 -1.695,-0.918 -1.688,-0.929 -1.683,-0.946 -1.672,-0.957 -1.664,-0.972 -1.66,-0.981 -1.649,-0.996 -1.644,-1.011 -1.633,-1.024 -1.625,-1.035 -1.617,-1.051 -1.61,-1.058 -1.601,-1.075 -1.594,-1.09 -1.582,-1.097 -1.574,-1.113 -1.567,-1.122 -1.558,-1.136 -1.547,-1.153 -1.539,-1.16 -1.527,-1.172 -1.524,-1.187 -1.508,-1.199 -1.5,-1.207 -1.492,-1.223 -1.48,-1.234 -1.473,-1.243 -1.465,-1.257 -1.449,-1.27 -1.441,-1.277 -1.434,-1.293 -1.422,-1.301 -1.41,-1.316 -1.402,-1.325 -1.387,-1.336 -1.379,-1.343 -1.371,-1.36 -1.356,-1.367 -1.347,-1.379 -1.336,-1.39 -1.324,-1.403 -1.317,-1.41 -1.301,-1.422 -1.289,-1.43 -1.281,-1.441 -1.269,-1.453 -1.254,-1.461 -1.246,-1.473 -1.235,-1.48 -1.219,-1.492 -1.211,-1.504 -1.199,-1.508 -1.183,-1.52 -1.176,-1.531 -1.16,-1.539 -1.149,-1.547 -1.136,-1.558 -1.125,-1.563 -1.114,-1.578 -1.097,-1.582 -1.086,-1.594 -1.078,-1.601 -1.059,-1.606 -1.051,-1.621 -1.035,-1.625 -1.023,-1.633 -1.008,-1.64 -1,-1.653 -0.981,-1.656 -0.972,-1.668 -0.957,-1.672 -0.942,-1.679 -0.933,-1.692 -0.914,-1.695 -0.907,-1.703 -0.89,-1.707 -0.875,-1.719 -0.864,-1.723 -0.847,-1.73 -0.836,-1.738 -0.824,-1.747 -0.805,-1.75 -0.797,-1.753 -0.777,-1.766 -0.766,-1.77 -0.754,-1.773 -0.738,-1.781 -0.723,-1.785 -0.711,-1.793 -0.691,-1.801 -0.684,-1.801 -0.664,-1.809 -0.652,-1.816 -0.641,-1.82 -0.621,-1.821 -0.609,-1.832 -0.594,-1.832 -0.578,-1.84 -0.566,-1.843 -0.551,-1.848 -0.535,-1.852 -0.524,-1.855 -0.504,-1.859 -0.492,-1.864 -0.476,-1.867 -0.461,-1.875 -0.45,-1.875 -0.429,-1.879 -0.418,-1.883 -0.403,-1.882 -0.386,-1.887 -0.375,-1.895 -0.356,-1.894 -0.344,-1.895 -0.328,-1.902 -0.312,-1.902 -0.297,-1.903 -0.281,-1.91 -0.266,-1.906 -0.25,-1.914 -0.238,-1.91 -0.223,-1.918 -0.203,-1.914 -0.191,-1.922 -0.176,-1.918 -0.16,-1.922 -0.145,-1.922 -0.133,-1.922 -0.113,-1.926 -0.102,-1.925 -0.082,-1.926 -0.07,-1.926 -0.051,-1.926 -0.039,-1.929 -0.023,-1.926 -0.01,-1.93 h 9 l 0.01,1.856 0.019,1.859 0.039,1.855 0.051,1.856 0.067,1.855 0.082,1.856 0.093,1.851 0.114,1.856 0.125,1.851 0.136,1.852 0.157,1.848 0.168,1.851 0.183,1.844 0.199,1.848 0.215,1.843 0.227,1.844 0.242,1.84 0.258,1.836 0.269,1.84 0.285,1.832 0.301,1.832 0.317,1.828 0.328,1.828 0.344,1.824 0.359,1.821 0.375,1.82 0.387,1.816 0.402,1.813 0.414,1.808 0.434,1.805 0.441,1.805 0.461,1.797 0.473,1.797 0.488,1.789 0.5,1.789 0.516,1.781 0.531,1.781 0.543,1.774 0.558,1.769 0.575,1.766 0.586,1.761 0.601,1.758 0.613,1.75 0.629,1.75 0.641,1.742 0.656,1.735 0.668,1.73 0.684,1.727 0.695,1.723 0.711,1.714 0.727,1.707 0.734,1.707 0.754,1.696 0.762,1.691 0.781,1.688 0.789,1.679 0.805,1.672 0.816,1.668 0.832,1.66 0.844,1.653 0.859,1.644 0.871,1.641 0.879,1.633 0.899,1.625 0.91,1.621 0.922,1.609 0.933,1.606 0.945,1.597 0.961,1.586 0.973,1.582 0.984,1.574 1,1.567 1.008,1.558 1.024,1.547 1.031,1.543 1.047,1.532 1.062,1.527 1.071,1.516 1.082,1.507 1.093,1.5 1.106,1.489 1.121,1.484 1.129,1.473 1.141,1.461 1.152,1.457 1.168,1.445 1.176,1.437 1.187,1.426 1.199,1.418 1.211,1.406 1.219,1.399 1.234,1.387 1.243,1.378 1.253,1.372 1.266,1.359 1.274,1.348 1.289,1.336 1.296,1.328 1.309,1.32 1.316,1.309 1.329,1.296 1.336,1.286 1.351,1.273 1.359,1.266 1.368,1.254 1.379,1.246 1.386,1.23 1.399,1.223 1.41,1.211 1.414,1.195 1.43,1.191 1.433,1.176 1.446,1.164 1.457,1.153 1.464,1.14 1.473,1.133 1.481,1.117 1.488,1.106 1.5,1.093 1.508,1.086 1.515,1.071 1.528,1.058 1.531,1.047 1.543,1.035 1.551,1.02 1.554,1.012 1.567,0.996 1.574,0.984 1.582,0.973 1.59,0.961 1.594,0.945 1.605,0.937 1.609,0.922 1.621,0.907 1.625,0.898 1.633,0.883 1.641,0.871 1.644,0.855 1.657,0.844 1.66,0.832 1.664,0.817 1.676,0.804 1.675,0.793 1.688,0.778 1.691,0.765 1.7,0.75 1.703,0.738 1.707,0.723 1.715,0.711 1.722,0.695 1.727,0.684 1.73,0.668 1.739,0.656 1.742,0.645 1.746,0.625 1.75,0.617 1.758,0.598 1.761,0.586 1.766,0.574 1.77,0.558 1.777,0.543 1.777,0.532 1.785,0.515 1.786,0.5 1.792,0.488 1.793,0.473 1.801,0.461 1.801,0.445 1.805,0.43 1.808,0.414 1.817,0.402 1.812,0.391 1.821,0.371 1.82,0.36 1.824,0.343 1.828,0.328 1.828,0.317 1.832,0.301 1.836,0.285 1.836,0.269 1.836,0.258 1.844,0.242 1.84,0.231 1.844,0.211 1.847,0.199 1.848,0.184 1.847,0.167 1.852,0.157 1.848,0.14 1.855,0.125 1.852,0.11 1.855,0.094 1.852,0.082 1.855,0.066 1.856,0.051 1.859,0.039 1.856,0.019 1.855,0.01 v 9 l -1.926,-0.01 z" />
          <path
             id="path1214"
             style="fill:#d7a23f;fill-opacity:1;fill-rule:nonzero;stroke:none"
             d="m 2429.016,1658.449 1.644,-0.019 1.641,-0.035 1.64,-0.043 1.641,-0.059 1.645,-0.074 1.636,-0.082 1.641,-0.102 1.637,-0.109 1.64,-0.121 1.637,-0.137 1.633,-0.152 1.633,-0.161 1.632,-0.175 1.633,-0.192 1.629,-0.199 1.629,-0.215 1.629,-0.226 1.621,-0.243 1.625,-0.25 1.621,-0.265 1.617,-0.281 1.618,-0.293 1.613,-0.301 1.609,-0.317 1.61,-0.332 1.605,-0.343 1.605,-0.356 1.598,-0.367 1.598,-0.383 1.594,-0.39 1.593,-0.407 1.586,-0.418 1.586,-0.433 1.582,-0.442 1.578,-0.457 1.575,-0.468 1.566,-0.485 1.566,-0.492 1.563,-0.508 1.558,-0.515 1.555,-0.532 1.551,-0.543 1.543,-0.558 1.543,-0.567 1.535,-0.578 1.531,-0.594 1.528,-0.605 1.523,-0.613 1.516,-0.629 1.511,-0.641 1.508,-0.652 1.504,-0.664 1.496,-0.676 1.488,-0.691 1.489,-0.7 1.48,-0.711 1.473,-0.722 1.469,-0.735 1.461,-0.75 1.457,-0.757 1.453,-0.77 1.441,-0.781 1.438,-0.793 1.433,-0.805 1.426,-0.812 1.418,-0.828 1.414,-0.836 1.406,-0.852 1.399,-0.859 1.39,-0.871 1.387,-0.883 1.375,-0.895 1.371,-0.902 1.363,-0.918 1.36,-0.922 1.347,-0.937 1.34,-0.95 1.336,-0.957 1.324,-0.968 1.321,-0.977 1.308,-0.992 1.305,-1 1.297,-1.008 1.285,-1.02 1.277,-1.031 1.27,-1.043 1.266,-1.051 1.254,-1.058 1.242,-1.07 1.238,-1.083 1.227,-1.089 1.222,-1.098 1.211,-1.109 1.199,-1.121 1.196,-1.129 1.183,-1.137 1.176,-1.149 1.164,-1.156 1.156,-1.164 1.149,-1.176 1.137,-1.183 1.128,-1.196 1.118,-1.199 1.113,-1.211 1.098,-1.218 1.089,-1.231 1.082,-1.234 1.071,-1.246 1.058,-1.254 1.051,-1.262 1.039,-1.27 1.031,-1.281 1.024,-1.285 1.008,-1.297 1,-1.301 0.988,-1.312 0.98,-1.316 0.969,-1.329 0.957,-1.332 0.949,-1.343 0.934,-1.348 0.926,-1.356 0.914,-1.363 0.906,-1.371 0.895,-1.379 0.882,-1.387 0.872,-1.39 0.859,-1.399 0.848,-1.406 0.839,-1.414 0.825,-1.418 0.816,-1.426 0.805,-1.429 0.793,-1.438 0.781,-1.445 0.769,-1.449 0.758,-1.457 0.746,-1.465 0.735,-1.469 0.726,-1.473 0.711,-1.48 0.699,-1.484 0.688,-1.493 0.676,-1.496 0.664,-1.504 0.652,-1.504 0.641,-1.515 0.629,-1.516 0.617,-1.523 0.605,-1.528 0.59,-1.531 0.582,-1.535 0.567,-1.539 0.554,-1.547 0.543,-1.551 0.532,-1.554 0.519,-1.559 0.508,-1.559 0.492,-1.566 0.481,-1.57 0.468,-1.575 0.457,-1.578 0.446,-1.582 0.429,-1.582 0.422,-1.59 0.403,-1.589 0.394,-1.594 0.383,-1.598 0.367,-1.601 0.356,-1.606 0.343,-1.605 0.328,-1.606 0.317,-1.613 0.305,-1.613 0.292,-1.618 0.278,-1.617 0.265,-1.621 0.254,-1.621 0.243,-1.625 0.226,-1.625 0.215,-1.629 0.199,-1.633 0.188,-1.629 0.175,-1.632 0.165,-1.633 0.148,-1.637 0.137,-1.637 0.125,-1.636 0.109,-1.641 0.098,-1.637 0.086,-1.64 0.07,-1.641 0.059,-1.641 0.046,-1.644 0.032,-1.641 0.019,-1.64 0.01,-1.645 h 9 l -0.01,1.715 -0.019,1.715 -0.036,1.711 -0.046,1.715 -0.063,1.711 -0.074,1.71 -0.086,1.715 -0.102,1.707 -0.117,1.711 -0.129,1.707 -0.14,1.711 -0.157,1.703 -0.171,1.707 -0.184,1.704 -0.195,1.703 -0.211,1.699 -0.223,1.699 -0.238,1.699 -0.25,1.696 -0.266,1.691 -0.277,1.691 -0.289,1.688 -0.305,1.687 -0.316,1.684 -0.332,1.68 -0.344,1.679 -0.359,1.676 -0.372,1.676 -0.382,1.668 -0.399,1.668 -0.41,1.664 -0.422,1.66 -0.437,1.656 -0.45,1.653 -0.464,1.648 -0.477,1.649 -0.488,1.64 -0.504,1.641 -0.516,1.633 -0.527,1.629 -0.539,1.628 -0.555,1.622 -0.566,1.617 -0.582,1.613 -0.59,1.606 -0.606,1.605 -0.617,1.598 -0.633,1.593 -0.644,1.586 -0.656,1.586 -0.668,1.578 -0.68,1.571 -0.692,1.566 -0.707,1.563 -0.718,1.554 -0.731,1.551 -0.742,1.547 -0.754,1.535 -0.765,1.535 -0.782,1.524 -0.789,1.519 -0.804,1.516 -0.817,1.508 -0.828,1.5 -0.836,1.492 -0.851,1.488 -0.864,1.481 -0.875,1.476 -0.887,1.465 -0.898,1.461 -0.906,1.453 -0.922,1.445 -0.934,1.438 -0.941,1.43 -0.957,1.421 -0.965,1.415 -0.977,1.41 -0.988,1.398 -1,1.391 -1.012,1.386 -1.019,1.375 -1.035,1.368 -1.043,1.359 -1.051,1.352 -1.066,1.343 -1.075,1.332 -1.085,1.328 -1.098,1.317 -1.106,1.308 -1.117,1.297 -1.129,1.293 -1.136,1.282 -1.149,1.273 -1.156,1.262 -1.168,1.254 -1.176,1.246 -1.187,1.234 -1.2,1.227 -1.207,1.215 -1.214,1.207 -1.227,1.199 -1.234,1.187 -1.246,1.176 -1.254,1.168 -1.266,1.16 -1.27,1.145 -1.281,1.14 -1.293,1.125 -1.301,1.117 -1.304,1.106 -1.321,1.098 -1.324,1.086 -1.336,1.074 -1.34,1.066 -1.351,1.055 -1.359,1.043 -1.368,1.031 -1.375,1.02 -1.386,1.011 -1.391,1 -1.402,0.989 -1.407,0.976 -1.414,0.969 -1.422,0.953 -1.433,0.945 -1.438,0.93 -1.445,0.922 -1.453,0.91 -1.457,0.895 -1.469,0.886 -1.473,0.875 -1.48,0.864 -1.488,0.851 -1.492,0.84 -1.5,0.824 -1.508,0.817 -1.516,0.804 -1.519,0.789 -1.528,0.782 -1.531,0.765 -1.539,0.754 -1.543,0.742 -1.551,0.731 -1.555,0.719 -1.562,0.707 -1.566,0.695 -1.575,0.68 -1.578,0.668 -1.582,0.656 -1.59,0.64 -1.593,0.633 -1.598,0.617 -1.602,0.606 -1.609,0.594 -1.609,0.578 -1.618,0.566 -1.621,0.555 -1.629,0.539 -1.628,0.531 -1.637,0.516 -1.637,0.5 -1.641,0.488 -1.648,0.477 -1.648,0.465 -1.653,0.449 -1.656,0.437 -1.664,0.422 -1.66,0.414 -1.668,0.395 -1.672,0.386 -1.672,0.368 -1.676,0.359 -1.679,0.344 -1.68,0.332 -1.684,0.316 -1.687,0.305 -1.688,0.293 -1.691,0.277 -1.695,0.262 -1.692,0.25 -1.699,0.238 -1.699,0.223 -1.699,0.211 -1.704,0.199 -1.703,0.18 -1.707,0.172 -1.707,0.156 -1.707,0.14 -1.707,0.129 -1.711,0.118 -1.711,0.101 -1.711,0.09 -1.711,0.074 -1.714,0.059 -1.711,0.051 -1.715,0.031 -1.711,0.019 -1.715,0.01 v -9 h 1.641 z" />
          <path
             id="path1216"
             style="fill:#d7a23f;fill-opacity:1;fill-rule:nonzero;stroke:none"
             d="m 2429.23,1685.445 1.856,-0.019 1.859,-0.039 1.856,-0.051 1.855,-0.066 1.852,-0.082 1.855,-0.094 1.852,-0.11 1.855,-0.125 1.848,-0.14 1.852,-0.157 1.847,-0.167 1.848,-0.184 1.847,-0.199 1.844,-0.211 1.84,-0.231 1.844,-0.242 1.836,-0.258 1.836,-0.269 1.836,-0.285 1.832,-0.301 1.828,-0.317 1.828,-0.328 1.824,-0.343 1.82,-0.36 1.821,-0.371 1.812,-0.391 1.817,-0.402 1.808,-0.414 1.805,-0.43 1.801,-0.445 1.801,-0.461 1.793,-0.473 1.792,-0.488 1.786,-0.5 1.785,-0.515 1.777,-0.532 1.777,-0.543 1.77,-0.558 1.766,-0.574 1.761,-0.586 1.758,-0.598 1.75,-0.617 1.746,-0.625 1.742,-0.645 1.739,-0.656 1.73,-0.668 1.727,-0.684 1.722,-0.695 1.715,-0.711 1.707,-0.723 1.703,-0.738 1.7,-0.75 1.691,-0.765 1.688,-0.778 1.675,-0.793 1.676,-0.804 1.664,-0.817 1.66,-0.832 1.657,-0.844 1.644,-0.855 1.641,-0.871 1.633,-0.883 1.625,-0.898 1.621,-0.907 1.609,-0.922 1.605,-0.937 1.594,-0.945 1.59,-0.961 1.582,-0.973 1.574,-0.984 1.567,-0.996 1.554,-1.012 1.551,-1.02 1.543,-1.035 1.531,-1.047 1.528,-1.058 1.515,-1.071 1.508,-1.086 1.5,-1.093 1.488,-1.106 1.481,-1.117 1.473,-1.133 1.464,-1.14 1.457,-1.153 1.446,-1.164 1.433,-1.176 1.43,-1.191 1.414,-1.195 1.41,-1.211 1.399,-1.223 1.386,-1.23 1.379,-1.246 1.368,-1.254 1.359,-1.266 1.351,-1.273 1.336,-1.286 1.329,-1.296 1.316,-1.309 1.309,-1.32 1.296,-1.328 1.289,-1.336 1.274,-1.348 1.266,-1.359 1.253,-1.372 1.243,-1.378 1.234,-1.387 1.219,-1.399 1.211,-1.406 1.199,-1.418 1.187,-1.426 1.176,-1.437 1.168,-1.445 1.152,-1.457 1.141,-1.461 1.129,-1.473 1.121,-1.484 1.106,-1.489 1.093,-1.5 1.082,-1.507 1.071,-1.516 1.062,-1.527 1.047,-1.532 1.031,-1.543 1.024,-1.547 1.008,-1.558 1,-1.567 0.984,-1.574 0.973,-1.582 0.961,-1.586 0.945,-1.597 0.933,-1.606 0.922,-1.609 0.91,-1.621 0.899,-1.625 0.879,-1.633 0.871,-1.641 0.859,-1.644 0.844,-1.653 0.832,-1.66 0.816,-1.668 0.805,-1.672 0.789,-1.679 0.781,-1.688 0.762,-1.691 0.754,-1.696 0.734,-1.707 0.727,-1.707 0.711,-1.714 0.695,-1.723 0.684,-1.727 0.668,-1.73 0.656,-1.735 0.641,-1.742 0.629,-1.75 0.613,-1.75 0.601,-1.758 0.586,-1.761 0.575,-1.766 0.558,-1.769 0.543,-1.774 0.531,-1.781 0.516,-1.781 0.5,-1.789 0.488,-1.789 0.473,-1.797 0.461,-1.797 0.441,-1.805 0.434,-1.805 0.414,-1.808 0.402,-1.813 0.387,-1.816 0.375,-1.82 0.359,-1.821 0.344,-1.824 0.328,-1.828 0.317,-1.828 0.301,-1.832 0.285,-1.832 0.269,-1.84 0.258,-1.836 0.242,-1.84 0.227,-1.844 0.215,-1.843 0.199,-1.848 0.183,-1.844 0.168,-1.851 0.157,-1.848 0.136,-1.852 0.125,-1.851 0.114,-1.856 0.093,-1.851 0.082,-1.856 0.067,-1.855 0.051,-1.856 0.039,-1.855 0.019,-1.859 0.01,-1.856 h 9 l -0.01,1.93 -0.023,1.926 -0.039,1.929 -0.051,1.926 -0.07,1.926 -0.082,1.926 -0.102,1.925 -0.113,1.926 -0.133,1.922 -0.145,1.922 -0.16,1.922 -0.176,1.918 -0.191,1.922 -0.203,1.914 -0.223,1.918 -0.238,1.91 -0.25,1.914 -0.266,1.906 -0.281,1.91 -0.297,1.903 -0.312,1.902 -0.328,1.902 -0.344,1.895 -0.356,1.894 -0.375,1.895 -0.386,1.887 -0.403,1.882 -0.418,1.883 -0.429,1.879 -0.45,1.875 -0.461,1.875 -0.476,1.867 -0.492,1.864 -0.504,1.859 -0.524,1.855 -0.535,1.852 -0.551,1.848 -0.566,1.843 -0.578,1.84 -0.594,1.832 -0.609,1.832 -0.621,1.821 -0.641,1.82 -0.652,1.816 -0.664,1.809 -0.684,1.801 -0.691,1.801 -0.711,1.793 -0.723,1.785 -0.738,1.781 -0.754,1.773 -0.766,1.77 -0.777,1.766 -0.797,1.753 -0.805,1.75 -0.824,1.747 -0.836,1.738 -0.847,1.73 -0.864,1.723 -0.875,1.719 -0.89,1.707 -0.907,1.703 -0.914,1.695 -0.933,1.692 -0.942,1.679 -0.957,1.672 -0.972,1.668 -0.981,1.656 -1,1.653 -1.008,1.64 -1.023,1.633 -1.035,1.625 -1.051,1.621 -1.059,1.606 -1.078,1.601 -1.086,1.594 -1.097,1.582 -1.114,1.578 -1.125,1.563 -1.136,1.558 -1.149,1.547 -1.16,1.539 -1.176,1.531 -1.183,1.52 -1.199,1.508 -1.211,1.504 -1.219,1.492 -1.235,1.48 -1.246,1.473 -1.254,1.461 -1.269,1.453 -1.281,1.441 -1.289,1.43 -1.301,1.422 -1.317,1.41 -1.324,1.403 -1.336,1.39 -1.347,1.379 -1.356,1.367 -1.371,1.36 -1.379,1.343 -1.387,1.336 -1.402,1.325 -1.41,1.316 -1.422,1.301 -1.434,1.293 -1.441,1.277 -1.449,1.27 -1.465,1.257 -1.473,1.243 -1.48,1.234 -1.492,1.223 -1.5,1.207 -1.508,1.199 -1.524,1.187 -1.527,1.172 -1.539,1.16 -1.547,1.153 -1.558,1.136 -1.567,1.122 -1.574,1.113 -1.582,1.097 -1.594,1.09 -1.601,1.075 -1.61,1.058 -1.617,1.051 -1.625,1.035 -1.633,1.024 -1.644,1.011 -1.649,0.996 -1.66,0.981 -1.664,0.972 -1.672,0.957 -1.683,0.946 -1.688,0.929 -1.695,0.918 -1.703,0.903 -1.711,0.89 -1.715,0.875 -1.723,0.864 -1.734,0.851 -1.735,0.832 -1.746,0.825 -1.75,0.808 -1.758,0.793 -1.761,0.777 -1.77,0.77 -1.773,0.75 -1.781,0.738 -1.789,0.723 -1.79,0.711 -1.8,0.695 -1.805,0.68 -1.809,0.668 -1.812,0.652 -1.82,0.637 -1.825,0.625 -1.828,0.605 -1.832,0.594 -1.84,0.582 -1.843,0.563 -1.848,0.55 -1.852,0.539 -1.855,0.52 -1.859,0.508 -1.868,0.488 -1.867,0.477 -1.871,0.464 -1.875,0.446 -1.879,0.433 -1.883,0.418 -1.882,0.403 -1.891,0.386 -1.891,0.371 -1.894,0.36 -1.899,0.34 -1.898,0.328 -1.902,0.312 -1.907,0.297 -1.906,0.281 -1.91,0.266 -1.91,0.254 -1.914,0.234 -1.914,0.223 -1.918,0.207 -1.918,0.191 -1.918,0.172 -1.922,0.164 -1.922,0.145 -1.926,0.129 -1.922,0.113 -1.925,0.102 -1.926,0.082 -1.926,0.07 -1.93,0.055 -1.926,0.039 -1.929,0.019 -1.926,0.01 v -9 z" />
          <path
             id="path1218"
             style="fill:#d7a23f;fill-opacity:1;fill-rule:nonzero;stroke:none"
             d="m 2661.402,1064.574 0.036,-1.715 0.046,-1.711 0.063,-1.714 0.074,-1.711 0.086,-1.711 0.102,-1.711 0.117,-1.711 0.129,-1.707 0.14,-1.707 0.157,-1.707 0.171,-1.707 0.184,-1.703 0.195,-1.704 0.211,-1.699 0.223,-1.699 0.238,-1.699 0.25,-1.692 0.266,-1.695 0.277,-1.691 0.289,-1.688 0.305,-1.687 0.316,-1.684 0.332,-1.68 0.344,-1.679 0.359,-1.676 0.372,-1.672 0.382,-1.672 0.399,-1.668 0.41,-1.66 0.422,-1.664 0.437,-1.656 0.45,-1.653 0.464,-1.648 0.477,-1.648 0.488,-1.641 0.504,-1.637 0.516,-1.637 0.527,-1.628 0.539,-1.629 0.555,-1.621 0.566,-1.618 0.582,-1.609 0.59,-1.609 0.606,-1.602 0.617,-1.598 0.633,-1.593 0.644,-1.59 0.656,-1.582 0.668,-1.578 0.68,-1.575 0.692,-1.566 0.707,-1.562 0.718,-1.555 0.731,-1.551 0.742,-1.543 0.754,-1.539 0.765,-1.531 0.782,-1.528 0.789,-1.519 0.804,-1.516 0.817,-1.508 0.828,-1.5 0.836,-1.492 0.851,-1.488 0.864,-1.48 0.875,-1.473 0.887,-1.469 0.898,-1.457 0.906,-1.453 0.922,-1.445 0.934,-1.438 0.941,-1.433 0.957,-1.422 0.965,-1.414 0.977,-1.407 0.988,-1.402 1,-1.391 1.012,-1.382 1.019,-1.379 1.035,-1.367 1.043,-1.36 1.051,-1.351 1.066,-1.34 1.075,-1.336 1.085,-1.324 1.098,-1.321 1.106,-1.304 1.117,-1.301 1.129,-1.293 1.136,-1.281 1.149,-1.27 1.156,-1.266 1.168,-1.253 1.176,-1.247 1.187,-1.234 1.2,-1.227 1.207,-1.214 1.214,-1.207 1.227,-1.2 1.234,-1.187 1.246,-1.176 1.254,-1.168 1.266,-1.156 1.27,-1.149 1.281,-1.136 1.293,-1.129 1.301,-1.117 1.304,-1.106 1.321,-1.097 1.324,-1.086 1.336,-1.075 1.34,-1.066 1.351,-1.051 1.359,-1.043 1.368,-1.035 1.375,-1.02 1.386,-1.011 1.391,-1 1.402,-0.989 1.407,-0.976 1.414,-0.965 1.422,-0.957 1.433,-0.941 1.438,-0.934 1.445,-0.922 1.453,-0.906 1.457,-0.899 1.469,-0.886 1.473,-0.875 1.48,-0.863 1.488,-0.852 1.492,-0.836 1.5,-0.828 1.508,-0.817 1.516,-0.804 1.519,-0.789 1.528,-0.778 1.531,-0.769 1.539,-0.754 1.543,-0.742 1.551,-0.731 1.555,-0.718 1.562,-0.708 1.566,-0.691 1.575,-0.68 1.578,-0.668 1.582,-0.656 1.59,-0.644 1.593,-0.633 1.598,-0.617 1.602,-0.606 1.609,-0.59 1.609,-0.582 1.618,-0.566 1.625,-0.555 1.625,-0.539 1.628,-0.527 1.637,-0.516 1.637,-0.504 1.641,-0.488 1.648,-0.477 1.648,-0.464 1.653,-0.45 1.656,-0.437 1.664,-0.422 1.664,-0.41 1.664,-0.399 1.672,-0.382 1.672,-0.371 1.676,-0.36 1.679,-0.344 1.68,-0.332 1.684,-0.316 1.687,-0.305 1.688,-0.289 1.691,-0.277 1.695,-0.266 1.692,-0.25 1.699,-0.238 1.699,-0.223 1.699,-0.211 1.704,-0.195 1.703,-0.184 1.707,-0.171 1.707,-0.157 1.707,-0.14 1.707,-0.129 1.711,-0.117 1.711,-0.102 1.711,-0.086 1.711,-0.074 1.714,-0.063 1.711,-0.047 1.715,-0.035 1.711,-0.019 1.715,-0.008 v 9 l -1.641,0.008 -1.644,0.019 -1.641,0.032 -1.64,0.046 -1.641,0.059 -1.645,0.07 -1.636,0.086 -1.641,0.098 -1.637,0.109 -1.64,0.125 -1.637,0.137 -1.633,0.149 -1.633,0.164 -1.632,0.175 -1.633,0.188 -1.629,0.199 -1.629,0.215 -1.629,0.226 -1.621,0.243 -1.625,0.254 -1.621,0.265 -1.617,0.278 -1.618,0.293 -1.613,0.304 -1.609,0.317 -1.61,0.328 -1.605,0.343 -1.605,0.356 -1.598,0.367 -1.598,0.383 -1.594,0.394 -1.593,0.403 -1.586,0.422 -1.586,0.429 -1.582,0.446 -1.578,0.457 -1.575,0.468 -1.566,0.481 -1.566,0.492 -1.563,0.508 -1.558,0.519 -1.555,0.532 -1.551,0.543 -1.543,0.554 -1.543,0.567 -1.535,0.582 -1.531,0.59 -1.528,0.605 -1.523,0.617 -1.516,0.629 -1.511,0.641 -1.508,0.652 -1.504,0.664 -1.496,0.676 -1.488,0.688 -1.489,0.699 -1.48,0.711 -1.473,0.726 -1.469,0.735 -1.461,0.746 -1.457,0.758 -1.453,0.769 -1.441,0.781 -1.438,0.793 -1.433,0.805 -1.426,0.816 -1.418,0.825 -1.414,0.839 -1.406,0.848 -1.399,0.859 -1.39,0.872 -1.387,0.882 -1.375,0.895 -1.371,0.906 -1.363,0.914 -1.36,0.926 -1.347,0.934 -1.34,0.949 -1.336,0.957 -1.324,0.969 -1.321,0.98 -1.308,0.988 -1.305,1 -1.297,1.008 -1.285,1.024 -1.277,1.031 -1.27,1.039 -1.266,1.051 -1.254,1.058 -1.242,1.071 -1.238,1.082 -1.227,1.089 -1.222,1.098 -1.211,1.113 -1.199,1.118 -1.196,1.129 -1.183,1.136 -1.176,1.149 -1.164,1.156 -1.156,1.164 -1.149,1.176 -1.137,1.183 -1.128,1.196 -1.118,1.199 -1.113,1.211 -1.098,1.222 -1.089,1.227 -1.082,1.238 -1.071,1.243 -1.058,1.253 -1.051,1.266 -1.039,1.27 -1.031,1.277 -1.024,1.285 -1.008,1.297 -1,1.305 -0.988,1.308 -0.98,1.321 -0.969,1.324 -0.957,1.336 -0.949,1.34 -0.934,1.347 -0.926,1.36 -0.914,1.363 -0.906,1.371 -0.895,1.375 -0.882,1.387 -0.872,1.39 -0.859,1.399 -0.848,1.406 -0.839,1.414 -0.825,1.418 -0.816,1.426 -0.805,1.433 -0.793,1.438 -0.781,1.441 -0.769,1.453 -0.758,1.457 -0.746,1.461 -0.735,1.469 -0.726,1.473 -0.711,1.48 -0.699,1.489 -0.688,1.488 -0.676,1.496 -0.664,1.504 -0.652,1.508 -0.641,1.511 -0.629,1.516 -0.617,1.523 -0.605,1.528 -0.59,1.531 -0.582,1.535 -0.567,1.543 -0.554,1.543 -0.543,1.551 -0.532,1.555 -0.519,1.558 -0.508,1.563 -0.492,1.566 -0.481,1.566 -0.468,1.575 -0.457,1.578 -0.446,1.582 -0.429,1.586 -0.422,1.586 -0.403,1.593 -0.394,1.594 -0.383,1.598 -0.367,1.598 -0.356,1.605 -0.343,1.605 -0.328,1.61 -0.317,1.609 -0.305,1.614 -0.292,1.617 -0.278,1.617 -0.265,1.621 -0.254,1.625 -0.243,1.621 -0.226,1.629 -0.215,1.629 -0.199,1.629 -0.188,1.633 -0.175,1.632 -0.165,1.633 -0.148,1.633 -0.137,1.637 -0.125,1.64 -0.109,1.637 -0.098,1.641 -0.086,1.636 -0.07,1.645 -0.059,1.641 -0.046,1.64 -0.032,1.641 -0.019,1.644 -0.01,1.641 h -9 l 0.01,-1.715 z" />
          <path
             id="path1220"
             style="fill:#d7a23f;fill-opacity:1;fill-rule:nonzero;stroke:none"
             d="m 2634.406,1064.145 0.039,-1.926 0.051,-1.93 0.07,-1.926 0.082,-1.925 0.102,-1.926 0.113,-1.922 0.133,-1.926 0.145,-1.922 0.16,-1.922 0.176,-1.918 0.191,-1.918 0.203,-1.918 0.223,-1.914 0.238,-1.914 0.25,-1.91 0.266,-1.91 0.281,-1.906 0.297,-1.907 0.312,-1.902 0.328,-1.898 0.344,-1.899 0.356,-1.894 0.375,-1.891 0.386,-1.891 0.403,-1.882 0.418,-1.883 0.429,-1.879 0.45,-1.875 0.461,-1.871 0.476,-1.867 0.492,-1.868 0.504,-1.859 0.524,-1.855 0.535,-1.852 0.551,-1.848 0.566,-1.843 0.578,-1.84 0.594,-1.832 0.609,-1.828 0.621,-1.825 0.641,-1.82 0.652,-1.812 0.664,-1.809 0.684,-1.805 0.691,-1.8 0.711,-1.789 0.723,-1.79 0.738,-1.781 0.754,-1.773 0.766,-1.77 0.777,-1.762 0.797,-1.757 0.805,-1.75 0.824,-1.746 0.836,-1.735 0.847,-1.734 0.864,-1.723 0.875,-1.715 0.89,-1.711 0.907,-1.703 0.914,-1.695 0.933,-1.688 0.942,-1.683 0.957,-1.672 0.972,-1.664 0.981,-1.66 1,-1.649 1.008,-1.644 1.023,-1.633 1.035,-1.625 1.051,-1.617 1.059,-1.61 1.078,-1.601 1.086,-1.594 1.097,-1.582 1.114,-1.574 1.125,-1.567 1.136,-1.558 1.149,-1.547 1.16,-1.539 1.176,-1.527 1.183,-1.524 1.199,-1.508 1.211,-1.5 1.219,-1.492 1.235,-1.48 1.246,-1.473 1.254,-1.465 1.269,-1.449 1.281,-1.441 1.289,-1.434 1.301,-1.422 1.317,-1.41 1.324,-1.402 1.336,-1.387 1.347,-1.379 1.356,-1.371 1.371,-1.356 1.379,-1.347 1.387,-1.336 1.402,-1.324 1.41,-1.317 1.422,-1.301 1.434,-1.289 1.441,-1.281 1.449,-1.269 1.465,-1.254 1.473,-1.246 1.48,-1.235 1.492,-1.219 1.5,-1.21 1.508,-1.2 1.524,-1.183 1.527,-1.176 1.539,-1.16 1.547,-1.149 1.558,-1.136 1.567,-1.125 1.574,-1.114 1.582,-1.097 1.594,-1.086 1.601,-1.078 1.61,-1.059 1.617,-1.051 1.625,-1.035 1.633,-1.023 1.644,-1.008 1.649,-1 1.66,-0.981 1.664,-0.972 1.672,-0.957 1.683,-0.942 1.688,-0.933 1.695,-0.914 1.703,-0.907 1.711,-0.89 1.715,-0.875 1.723,-0.864 1.734,-0.847 1.735,-0.836 1.746,-0.824 1.75,-0.805 1.758,-0.797 1.761,-0.777 1.77,-0.766 1.773,-0.754 1.781,-0.738 1.789,-0.723 1.79,-0.711 1.8,-0.691 1.805,-0.684 1.809,-0.664 1.812,-0.652 1.82,-0.641 1.825,-0.621 1.828,-0.609 1.832,-0.594 1.84,-0.578 1.843,-0.566 1.848,-0.551 1.852,-0.535 1.855,-0.524 1.859,-0.504 1.868,-0.492 1.867,-0.477 1.871,-0.46 1.875,-0.45 1.879,-0.429 1.883,-0.418 1.882,-0.403 1.891,-0.386 1.891,-0.375 1.894,-0.356 1.899,-0.344 1.898,-0.328 1.902,-0.312 1.907,-0.297 1.906,-0.281 1.91,-0.266 1.91,-0.25 1.914,-0.238 1.914,-0.223 1.918,-0.203 1.918,-0.191 1.918,-0.176 1.922,-0.16 1.922,-0.145 1.926,-0.133 1.922,-0.113 1.925,-0.102 1.926,-0.082 1.926,-0.07 1.93,-0.051 1.926,-0.039 1.929,-0.023 1.926,-0.008 v 9 l -1.855,0.008 -1.856,0.019 -1.859,0.039 -1.856,0.051 -1.855,0.067 -1.852,0.082 -1.855,0.093 -1.852,0.114 -1.855,0.125 -1.848,0.136 -1.852,0.157 -1.847,0.168 -1.848,0.183 -1.847,0.199 -1.844,0.215 -1.84,0.227 -1.844,0.242 -1.836,0.258 -1.836,0.269 -1.836,0.286 -1.832,0.3 -1.828,0.317 -1.828,0.328 -1.824,0.344 -1.82,0.359 -1.821,0.375 -1.812,0.387 -1.817,0.402 -1.808,0.414 -1.805,0.434 -1.801,0.441 -1.801,0.461 -1.793,0.473 -1.792,0.488 -1.786,0.5 -1.785,0.516 -1.777,0.531 -1.777,0.547 -1.77,0.554 -1.766,0.575 -1.761,0.586 -1.758,0.601 -1.75,0.613 -1.746,0.629 -1.742,0.641 -1.739,0.656 -1.73,0.668 -1.727,0.684 -1.722,0.695 -1.715,0.711 -1.707,0.727 -1.703,0.734 -1.7,0.754 -1.691,0.762 -1.688,0.781 -1.675,0.789 -1.676,0.805 -1.664,0.816 -1.66,0.832 -1.657,0.844 -1.644,0.859 -1.641,0.871 -1.633,0.879 -1.625,0.899 -1.621,0.91 -1.609,0.922 -1.605,0.933 -1.594,0.945 -1.59,0.961 -1.582,0.973 -1.574,0.984 -1.567,1 -1.554,1.008 -1.551,1.024 -1.543,1.031 -1.531,1.047 -1.528,1.062 -1.515,1.071 -1.508,1.082 -1.5,1.093 -1.488,1.106 -1.481,1.121 -1.473,1.129 -1.464,1.14 -1.457,1.153 -1.446,1.168 -1.433,1.176 -1.43,1.187 -1.414,1.199 -1.41,1.211 -1.399,1.219 -1.386,1.234 -1.379,1.243 -1.368,1.253 -1.359,1.266 -1.351,1.274 -1.336,1.289 -1.329,1.296 -1.316,1.309 -1.309,1.316 -1.296,1.329 -1.289,1.336 -1.274,1.351 -1.266,1.359 -1.253,1.368 -1.243,1.379 -1.234,1.386 -1.219,1.399 -1.211,1.41 -1.199,1.414 -1.187,1.43 -1.176,1.433 -1.168,1.446 -1.152,1.457 -1.141,1.464 -1.129,1.473 -1.121,1.481 -1.106,1.488 -1.093,1.5 -1.082,1.508 -1.071,1.515 -1.062,1.528 -1.047,1.531 -1.031,1.543 -1.024,1.551 -1.008,1.554 -1,1.567 -0.984,1.574 -0.973,1.582 -0.961,1.59 -0.945,1.594 -0.933,1.605 -0.922,1.609 -0.91,1.621 -0.899,1.625 -0.879,1.633 -0.871,1.641 -0.859,1.644 -0.844,1.657 -0.832,1.66 -0.816,1.664 -0.805,1.676 -0.789,1.675 -0.781,1.688 -0.762,1.691 -0.754,1.7 -0.734,1.703 -0.727,1.707 -0.711,1.715 -0.695,1.722 -0.684,1.727 -0.668,1.73 -0.656,1.739 -0.641,1.742 -0.629,1.746 -0.613,1.75 -0.601,1.758 -0.586,1.761 -0.575,1.766 -0.558,1.77 -0.543,1.777 -0.531,1.777 -0.516,1.785 -0.5,1.786 -0.488,1.793 -0.473,1.792 -0.461,1.801 -0.441,1.801 -0.434,1.805 -0.414,1.808 -0.402,1.817 -0.387,1.812 -0.375,1.821 -0.359,1.82 -0.344,1.824 -0.328,1.828 -0.317,1.828 -0.301,1.832 -0.285,1.836 -0.269,1.836 -0.258,1.836 -0.242,1.844 -0.227,1.84 -0.215,1.843 -0.199,1.848 -0.183,1.848 -0.168,1.847 -0.157,1.852 -0.136,1.848 -0.125,1.855 -0.114,1.852 -0.093,1.855 -0.082,1.852 -0.067,1.855 -0.051,1.856 -0.039,1.859 -0.019,1.856 -0.01,1.855 h -9 l 0.01,-1.926 z" />
          <path
             id="path1222"
             style="fill:#d7a23f;fill-opacity:1;fill-rule:nonzero;stroke:none"
             d="m 1250.25,833.453 h 69.375 v 9 h -69.375 z" />
          <path
             id="path1224"
             style="fill:#d7a23f;fill-opacity:1;fill-rule:nonzero;stroke:none"
             d="m 1250.25,860.453 h 69.375 v 9 h -69.375 z" />
          <path
             id="path1226"
             style="fill:#d7a23f;fill-opacity:1;fill-rule:nonzero;stroke:none"
             d="m 2184.375,243 h 9 v 1208.453 h -9 z" />
          <path
             id="path1228"
             style="fill:#d7a23f;fill-opacity:1;fill-rule:nonzero;stroke:none"
             d="m 1734.375,243 h 9 v 383.453 h -9 z" />
          <path
             id="path1230"
             style="fill:#d7a23f;fill-opacity:1;fill-rule:nonzero;stroke:none"
             d="m 1761.375,243 h 9 v 383.453 h -9 z" />
          <path
             id="path1232"
             style="fill:#d7a23f;fill-opacity:1;fill-rule:nonzero;stroke:none"
             d="m 2211.375,243 h 9 v 1208.453 h -9 z" />
          <path
             id="path1234"
             style="fill:#d7a23f;fill-opacity:1;fill-rule:nonzero;stroke:none"
             d="m 2634.375,1068 h 9 v 383.453 h -9 z" />
          <path
             id="path1236"
             style="fill:#d7a23f;fill-opacity:1;fill-rule:nonzero;stroke:none"
             d="m 2661.375,1068 h 9 v 383.453 h -9 z" />
          <path
             id="path1238"
             style="fill:#d7a23f;fill-opacity:1;fill-rule:nonzero;stroke:none"
             d="m 3085.125,825 h 69.375 v 9 h -69.375 z" />
          <path
             id="path1240"
             style="fill:#d7a23f;fill-opacity:1;fill-rule:nonzero;stroke:none"
             d="m 3085.125,852 h 69.375 v 9 h -69.375 z" />
          <path
             id="path1242"
             style="fill:#d7a23f;fill-opacity:1;fill-rule:nonzero;stroke:none"
             d="m 3154.5,816.75 h 60 v 52.5 h -60 z" />
          <path
             id="path1244"
             style="fill:#d7a23f;fill-opacity:1;fill-rule:nonzero;stroke:none"
             d="m 3150.75,813 h 3.75 v 3.75 h -3.75 z" />
          <path
             id="path1246"
             style="fill:#d7a23f;fill-opacity:1;fill-rule:nonzero;stroke:none"
             d="m 3147,816.75 h 3.75 v 3.75 H 3147 Z" />
          <path
             id="path1248"
             style="fill:#d7a23f;fill-opacity:1;fill-rule:nonzero;stroke:none"
             d="m 3150.75,869.25 h 3.75 V 873 h -3.75 z" />
          <path
             id="path1250"
             style="fill:#d7a23f;fill-opacity:1;fill-rule:nonzero;stroke:none"
             d="m 3147,865.5 h 3.75 v 3.75 H 3147 Z" />
          <path
             id="path1252"
             style="fill:#d7a23f;fill-opacity:1;fill-rule:nonzero;stroke:none"
             d="m 3214.5,813 h 3.75 v 3.75 h -3.75 z" />
          <path
             id="path1254"
             style="fill:#d7a23f;fill-opacity:1;fill-rule:nonzero;stroke:none"
             d="m 3218.25,816.75 h 3.75 v 3.75 h -3.75 z" />
          <path
             id="path1256"
             style="fill:#d7a23f;fill-opacity:1;fill-rule:nonzero;stroke:none"
             d="m 3214.5,869.25 h 3.75 V 873 h -3.75 z" />
          <path
             id="path1258"
             style="fill:#d7a23f;fill-opacity:1;fill-rule:nonzero;stroke:none"
             d="m 3218.25,865.5 h 3.75 v 3.75 h -3.75 z" />
          <path
             id="path1260"
             style="fill:#d7a23f;fill-opacity:1;fill-rule:nonzero;stroke:none"
             d="M 3410.25,730.5 V 834 h 9 V 726 l -4.5,-4.5 H 3289.5 l -4.5,4.5 v 108 h 9 V 730.5 Z" />
          <path
             id="path1262"
             style="fill:#d7a23f;fill-opacity:1;fill-rule:nonzero;stroke:none"
             d="m 3289.5,964.5 h 125.25 l 4.5,-4.5 V 852 h -9 V 955.5 H 3294 V 852 h -9 v 108 z" />
          <path
             id="path1264"
             style="fill:#d7a23f;fill-opacity:1;fill-rule:nonzero;stroke:none"
             d="m 3214.5,825 h 75 v 9 h -75 z" />
          <path
             id="path1266"
             style="fill:#d7a23f;fill-opacity:1;fill-rule:nonzero;stroke:none"
             d="m 3214.5,852 h 75 v 9 h -75 z" />
          <path
             id="path1268"
             style="fill:#d7a23f;fill-opacity:1;fill-rule:nonzero;stroke:none"
             d="m 3414.75,825 h 132 v 9 h -132 z" />
          <path
             id="path1270"
             style="fill:#d7a23f;fill-opacity:1;fill-rule:nonzero;stroke:none"
             d="m 3414.75,852 h 132 v 9 h -132 z" />
          <path
             id="path1272"
             style="fill:#d7a23f;fill-opacity:1;fill-rule:nonzero;stroke:none"
             d="m 1319.625,833.453 h 207.75 v 9 h -207.75 z" />
          <path
             id="path1274"
             style="fill:#d7a23f;fill-opacity:1;fill-rule:nonzero;stroke:none"
             d="m 1319.625,860.453 h 207.75 v 9 h -207.75 z" />
          <path
             id="path1276"
             style="fill:#d7a23f;fill-opacity:1;fill-rule:nonzero;stroke:none"
             d="m 2877.375,825 h 207.75 v 9 h -207.75 z" />
          <path
             id="path1278"
             style="fill:#d7a23f;fill-opacity:1;fill-rule:nonzero;stroke:none"
             d="m 2877.375,852 h 207.75 v 9 h -207.75 z" />
          <path
             id="path1280"
             style="fill:#d7a23f;fill-opacity:1;fill-rule:nonzero;stroke:none"
             d="m 2211.375,1068 h 9 v 383.453 h -9 z" />
          <path
             id="path1282"
             style="fill:#d7a23f;fill-opacity:1;fill-rule:nonzero;stroke:none"
             d="m 2184.375,1068 h 9 v 383.453 h -9 z" />
        </g>
      </g>
    </g>
  </g>
</svg>
